<svg id="Your_Dad_s_Fireworks" data-name="Your Dad’s Fireworks" xmlns="http://www.w3.org/2000/svg" viewBox="0 0 500 500"><defs><style>.cls-1{fill:#484848;}</style></defs><path class="cls-1" d="M125.06,290.24c5.23-1.35,7.26-4.37,6-9.24-1.33-5.12-4.94-6.52-9.78-5.26l-17.78,4.61c-.48.46-.91.84-1.15,1-1.91,1.66,2.29,3.82-3.32,4.15l.24.94,4.52-1.17a4.17,4.17,0,0,1-.69-.95s1.94,0,3.83.14l15.68-4.06c2.08-.54,3.67-.31,4.15,1.57s-.61,2.89-2.85,3.47l-23.33,6.05,1.23,4.73,10.73-2.78c.14-1.58.86-2.76,2.56-2.59a2.09,2.09,0,0,1,1.79,1.46l2.9-.75a4.16,4.16,0,0,1,2-1,.7.7,0,0,1,0,.49Z"/><path class="cls-1" d="M142.27,310.16l-9.22,5.39a5.38,5.38,0,0,1-1.09.53l-20.14,4.8,2.63,4.48c5-1.54,10.59-3.2,14.15-4.52l0,0c-2.74,2.16-7.1,6.4-10.9,10.1l2.73,4.66,13.75-14.9a3.15,3.15,0,0,1,.84-.69l9.69-5.67Z"/><path class="cls-1" d="M120.33,172.2a7.35,7.35,0,0,0-4.11,1.61c.5,2.26,2.43,4,4.6,5.33,4,2.45,6.41,1.8,10.49.3s5.35-1.57,8.25.21c1.75,1.08,3,2.45,2,4.07s-2.46,1.5-4.47.26l-1.67-1-2.56,4.16,1.6,1c3.56,2.18,7.49,2.92,10.56-2.08s.28-8.61-3.55-11c-4.52-2.77-7-2.6-12.48-.39-3.19,1.31-4.35,1.1-6.26-.08s-2.74-2.17-1.91-3.53a1.63,1.63,0,0,1,1.94-.81c0-.11,0-.21,0-.33a9.88,9.88,0,0,1,4.05,1l1.88-3.07-1.44-.88c-2.93-1.8-7-3.21-10,1.77a7.88,7.88,0,0,0-1.18,3.16C118,171.79,119.87,171.8,120.33,172.2Zm2.24-2.36q-3.46.78-4.22-.77A3.4,3.4,0,0,1,122.57,169.84Z"/><path class="cls-1" d="M125.56,171.57h-.07l.76.46.44-.71A2.78,2.78,0,0,1,125.56,171.57Z"/><path class="cls-1" d="M104.14,197.36l-2.32,6.37,14.26,5.2c-.51-1-.63-2.16,1.24-2.37,1-.1,1.16,1.87.89,3.14l13.38,4.88,2.32-6.36c2.43-6.68-1.63-9.37-5.91-11.05-1.87.19-4.88.38-2.71-.67a2.07,2.07,0,0,1,.72-.06l-10.21-3.73C110.27,190.7,106.44,191.05,104.14,197.36Zm25.69,15c-1.37-.43-1.2-.76.54-1C132.12,211.79,132,212.13,129.83,212.32Zm-22.31-14.1a2.55,2.55,0,0,0,.93-.13c.93-1.56,2.26-1.7,4-1.24,4-1.24,9.09-2.5,10,0a29.64,29.64,0,0,1-4.77,1.83l8.4,3.07c3.09,1.12,4.86,2.29,3.76,5.31l-.54,1.47-21.91-8,0-.09C105.42,199.69,106.34,198,107.52,198.22Z"/><path class="cls-1" d="M108.78,182.68a54.29,54.29,0,0,1,9.51,6.3l1.57-3.21a17.21,17.21,0,0,0-1.46-1.54c-1.51.24-2.28-.88-1.71-1.52a35.08,35.08,0,0,0-6-4Z"/><path class="cls-1" d="M127.12,261.22l-.54-4.69a87.92,87.92,0,0,1-9.64,1.39c-4.27.49-5.47,1.69-6.13,3.63-.63-1.16-2.09-3-6.93-2.46l-1.2.14c-5.67.65-7.26,3.7-6.72,8.49l.77,6.72,18.91-2.16,0,0v0l.37,0c-.09,0-.19,0-.28-.08a15.77,15.77,0,0,1,1.67-1.77c1.38.05,1.19,1,.82,1.6l10-1.14-.56-4.86-12.83,1.47c0,.09-.15.22-.51.37-1.08.11-1.32,0-.76-.43l-.1-.93c-.33-2.82.5-3.41,4.34-3.85C120.08,262.36,125.27,261.86,127.12,261.22Zm-26.93,7.91,0-.39a1.58,1.58,0,0,1-.45-.17,1.36,1.36,0,0,1,.39-.37l0-.44c-.31-2.75,1.11-3.43,3.54-3.71l1.08-.12c3.43-.39,4.5.44,4.8,3l.13,1.12Z"/><path class="cls-1" d="M79.68,319.1a182.25,182.25,0,0,1-11.46-41.78,15.85,15.85,0,0,0-6.08,2.61,188.65,188.65,0,0,0,12,42.46C76,321.3,77.83,320.21,79.68,319.1Z"/><path class="cls-1" d="M354.7,406.24c-3.05,1.65-5.61,4.67-7.79,7.37q5.89-3.5,11.5-7.4C357.47,406.13,356,405.53,354.7,406.24Z"/><path class="cls-1" d="M376.71,142.6c1.51,1.77,3,3.58,4.41,5.41a20.64,20.64,0,0,1,2.12-.42,3.58,3.58,0,0,1-1.48,1.25,165.74,165.74,0,0,1,28.57,57.39c.41.06.83.11,1.26.14,2.82.21,2.82-.87,5.21-1.17.92-.11,3.86.28,5.26.22.21,0,.68,0,1.3-.1a178.66,178.66,0,0,0-31.09-63.82C387.13,142.12,379.4,142.14,376.71,142.6Zm33.06,47.48c1,.67-3,1-2.89.5A5.36,5.36,0,0,1,409.77,190.08Z"/><path class="cls-1" d="M97.62,221.07l29.93,11.6,1-4.86L120.53,225l1-4.76,8.55.55,1.07-5-32.1-1.42Zm25,8.2-1.55.87-1.35-.62A2.84,2.84,0,0,1,122.62,229.27Zm-2.22-4.15c-.06,1.17-.46,1.23-1.19.17C119.29,224.4,119.67,224.34,120.4,225.12Zm-17.51-6.5c3.58.39,8.72.78,14.14,1.19l-.77,3.6c-4.44-1.59-10.88-3.94-13.41-4.61Z"/><path class="cls-1" d="M94.84,246.13l31.61,2.25.48-6.76c.53-7.51-4.72-8.72-9.55-9.06l-12.12-.86c-5.87-.42-9.46,1-9.94,7.67ZM99.49,240c.23-3.21,2.12-3.59,5-3.38l13.17.93c3.27.23,5.3.87,5.07,4.07l-.11,1.57-3.48-.25a.49.49,0,0,1,0,.12c-.72.34-1.09.26-1.15-.2l-16.39-1.17-1.34.36c.19-.13.37-.27.54-.41l-1.44-.1Zm.46,2.24c0,.14-2,2.44-2.72,1.56C97.15,243,98.06,242.5,100,242.26Z"/><path class="cls-1" d="M117.66,313.74,131.42,308c5.45-2.29,7.27-5.56,5.28-10.31a8,8,0,0,0-3.69-4.41.37.37,0,0,1,0,.14c-.51.88-4.85.15-5.88-.22a17.76,17.76,0,0,0-1.7.62l-8.69,3.63a5.48,5.48,0,0,1-1.48,2.68c-.5.34-1.12-.29-1.64-1.37l-1.84.77c-5.62,2.36-7.09,6-5.23,10.47S112.06,316.09,117.66,313.74Zm-2.19-2.91c-1.07-.43-1.22-.74-.44-.94C116.59,310.25,116.73,310.56,115.47,310.83Zm13.16-14.89c1.13.7-3.3,3.78-4.5,3.29C123.94,299.15,127.5,295.27,128.63,295.94Zm-15.44,8.36,3.6-1.51a5.81,5.81,0,0,1-1.32-.26c-.53-.09,1-1.31,2.94-.42l9.44-3.95c2.57-1.08,4-.74,4.7,1s-.09,3-2.52,4l-14.7,6.15c-2.47,1-4,.65-4.68-1C109.88,306.52,110.87,305.27,113.19,304.3Z"/><path class="cls-1" d="M411.45,210.57q1.57,6.42,2.64,13a7.48,7.48,0,0,0,3.06-.88s.08-.08.19-.1a3.68,3.68,0,0,1,2.67.09c.25.22-2-.17-2.67-.09a1.65,1.65,0,0,0-.19.1c.43,1.49-1.41,1.69-3,1.53A166,166,0,0,1,370.62,364.2a48.41,48.41,0,0,0-7.44-7l-10.66,14.6,8.29-16.07c5.38-8.63,15.61-31.7,16.06-32.65s2.7-2.46,3.13-4.74-1.61-7.55-.55-9.67,4.12-15.93,2.38-17.46-17.67-15.27-17.67-15.27a23.33,23.33,0,0,0-.87-6.07c-2.6-1.68-14.2-4-18.73-1.52a22.66,22.66,0,0,0,2.48,1.19,34,34,0,0,0,4.25,1.39,35.57,35.57,0,0,0,9,1.17,35.92,35.92,0,0,1-9.21.06,34.72,34.72,0,0,1-4.6-.84,24.08,24.08,0,0,1-2.42-.75,44,44,0,0,1-3,8.71s-19-14.07-27.39-17.68a65.88,65.88,0,0,0-14.67-4,16.6,16.6,0,0,0,2.85-4.35c-3.45-1.32-3.62-4.63-4.2-6.7,1.56.06,5.65-.4,7.12-1.36a8,8,0,0,0,3.19-5c.31-2,.18-1.64-1.89-4.35s-6.1-10.21-11.11-20.13a21.51,21.51,0,0,0,5.74-12.67c-4.35-3.05-6.85-12.93-7.47-17.69,16.2-3.07,25.4-13.69,24.25-17.26s-7.13-6.29-32.14-7.3c-16,0-52.7,6.62-78.14,17.94.25.28,0,.51-.64.68a1.12,1.12,0,0,1-.38-.22,100.3,100.3,0,0,0-9.22,4.74,78.57,78.57,0,0,1,9.45-5.57l.1-.09,0,0c23.43-11.87,60.09-19.67,75.78-21.75h0c-.6-1.08-1.19-2.28-1.78-3.57h0l-.07,0c-1.46.36-.23.05.07,0h0c-8.19-18.08-15.29-55.9-15.29-55.9s-3.35-2.58-13.86-2.62c1.58,12.24,6.53,48.91,10.74,61.05-8-14.34-15.14-52-16.7-60.82-1.35.1-2.78.23-4.31.41q.58,4.65,1.33,9.29c.26-.75.73-.62,1.42.39-.73.52-1.2.4-1.41-.34.85,5.29,1.85,10.56,3,15.81s2.35,10.48,3.71,15.68c.9,3.35,1.83,6.69,2.9,10l.16,0c0,.12,0,.38,0,.64.54,1.61,1.09,3.21,1.72,4.79-.62-1.32-1.19-2.66-1.73-4,0,0-.09-.09-.2-.41-.56-.33-1-.73-.32-.91-1.25-3.23-2.37-6.5-3.46-9.78q-2.5-7.69-4.63-15.51T239.65,105c-.69-3.12-1.33-6.26-1.9-9.42a198.6,198.6,0,0,0-29,6.82c-45.4,13.85-47.66,28.88-47.66,28.88s5.23,14.09,9.4,27.77c1.1,3.58,2.16,7.46,3.14,11.24.6.23.66.49.2.8,2.64,10.31,4.57,19.6,4.57,19.6a230.66,230.66,0,0,0-15.76,17.52c-6.74,8.54-3,14.26-.54,15.24s9,1.88,19.46.7c-1,3.26-4.88,7.07-8.42,8.42,4.16.91,6.36-.38,8-2.09-.88,3.85-5.2,7-7.27,7.46a12.39,12.39,0,0,0,7.85,2,11.51,11.51,0,0,0,3.21,10.41s-.69-4.05,2.32-6.59c-1.77,6.9,2.56,18.7,2.56,18.7A266.58,266.58,0,0,1,240,277.47c2.86,1.17,5.44,2.18,7.79,3.08a1.64,1.64,0,0,1,.12-.22c1.58-.21,2.34.17,2.33,1.14,17.77,6.58,20.13,5.2,21.34,6.11.18.14.11.78-.14,1.8,1.37-.13,2.51.31-.5,1.8-2.28,7.52-9.19,24.89-11.54,34.36.82-.29,1.44-.23,1.82.21-.41.47-1.06.53-1.92.2-.12.49-.22.95-.31,1.39,0,.25,0,.42-.08.4a2.56,2.56,0,0,0-.05.27c0,.27-.1.55-.13.8s-.09.66-.11,1c0,0,0-.31,0-.86,0-.28,0-.64,0-1.06a2.53,2.53,0,0,1,0-.27c-.81-.55-.82-1.13,0-1.74,0,0,0,.08.06.27a96.06,96.06,0,0,1,3-19.83c3.15-11.4,7.13-16.36,7.13-16.36s-6.16-1.15-9-2.56-15.1-6.22-20.76-8.11S192.1,263,182.54,266c-.67,2,1.46,3.88,1.47,8.88s-6.25,19.34-6.25,19.34l3.89,2.75c-9.9,18.8-21.17,24.3-25.2,32.49,3.41.46,17.75,3.17,36.46,9.14,0-.28.48-.56,2-.55.7.37.46.68-.71,1,2.67.86,5.43,1.79,8.25,2.79a3.49,3.49,0,0,1,2-1c.92.23.78.65-.38,1.26l-.28.17a281.4,281.4,0,0,1,32.92,14.14c0-.16.25-.35.71-.59,1.32-.69,4.15-1.34,6-.32,1.49.83-3.76,1.59-5.85,1.33q5.9,3,11.71,6.48c.91-.79,1.74-1.32,2-1,.4.51.07,1.17-.51,1.89a170.42,170.42,0,0,1,27.69,20.58,4.35,4.35,0,0,1,2-1.16c1.42,3.35-4.33,6.7-6.2,9.54-.77.24-2.29.65-3.3.84-.12-1.42,1.51-2.85,3.32-3.93s2.59-3.53,4.07-5.12a224.19,224.19,0,0,0-28.89-19.25,8.28,8.28,0,0,0-.8,1c.46.58.53,1.15-.42.87a2.39,2.39,0,0,1,.42-.87c-.46-.57-1.27-1.14-1.9-.94a6.46,6.46,0,0,1-.59.62,1,1,0,0,1,.59-.62c.26-.28.6-.63,1-1a215.36,215.36,0,0,0-42-17.11,1.19,1.19,0,0,1,.07.51c-2.41.39-2.78-.22-2.15-1.11q-2.17-.63-4.41-1.23c0,.22-.35.36-1.15.43-.47-.3-.44-.54.08-.72A366.22,366.22,0,0,0,154.35,337c-.75,2.77-1.59,5.95-2.47,9.41l1.52-.48c2-.75-.89,1.49-1.27,1.8h0c-.09.06-.09.05,0,0a1.34,1.34,0,0,1-.64.2c-2.25,8.81-4.79,19.38-7.16,30.3a166.16,166.16,0,0,1-59-105.61c-1.1.52-7.36,2.62-5.81-.12a9.44,9.44,0,0,0,5.23.2l.57-.16a166.44,166.44,0,0,1,6-72,4.31,4.31,0,0,1-1.73,0c-2.83-.45-2.45-2-1-2.89a6.27,6.27,0,0,1,4-.93,165.83,165.83,0,0,1,18.29-37.47c-.88-.42-.66-.76.68-1q2.42-3.63,5-7.14c-1.2.06-2.19-.09-2.4-.64.31.81,3.16-1.24,5-2.7a166,166,0,0,1,257.16-5.62c2-1.53,9.24-2.11,14.61-2.4a181.9,181.9,0,0,0-12.48-14.26,7.26,7.26,0,0,1-5.29,0,10.33,10.33,0,0,1,4.36-.93,178.26,178.26,0,0,0-14.36-13.1l-.12,0c-.69-.22-.87-.42-.57-.58A178.76,178.76,0,0,0,100.8,151.21a6,6,0,0,1,.56.52,2.3,2.3,0,0,1-1.57,1,179,179,0,0,0-11.05,19.58c.44.26.24.44-.25.52a178.92,178.92,0,0,0-10.58,27.81l0,0-.06,0A178.67,178.67,0,0,0,71,250a181.83,181.83,0,0,0,1,18.47,13.4,13.4,0,0,1,3.6-1.12A54,54,0,0,0,72.35,272,179.25,179.25,0,0,0,249.63,429c.51-1.73.74-3.75,2.5-5.14,2.38,1.23.74,3.69-.76,5.12,2,0,3.92-.06,5.86-.14a3.16,3.16,0,0,1,1.33-.92c.52.24.74.52.68.83l3.21-.19a5.19,5.19,0,0,1,1.89-.15l.51,0c.34-.2.92-.53.9-.54l.09,0h0l-.91.49q5.16-.44,10.25-1.16c1.89-2.71,6.49-7,8.89-8,.76,1.85-2.49,4.07-4,5.74,0,0-.86.85-1.89,1.78a178.61,178.61,0,0,0,21.78-4.9,9.27,9.27,0,0,1-.27-1.22c1,0,1.48.32,1.42.88a177.88,177.88,0,0,0,31-12.51l1.45-.77a178.29,178.29,0,0,0,16.14-9.66l1.79-1.23a180.38,180.38,0,0,0,18-14.21c.74-.66,1.45-1.35,2.18-2l-.34.12c-.61-.31-.48-.7.37-1.13a1.38,1.38,0,0,1,.68.34c.61-.56,1.23-1.12,1.83-1.69,1.35-1.31,2.67-2.63,4-4a178.87,178.87,0,0,0,46.32-164.65c-4.08.13-8.15.26-12.17.41ZM378.88,313.18c-.85.6-1.28.5-1.27-.26C378.64,312.08,379.07,312.16,378.88,313.18Zm-18,19.25c-.12-.09,0-.3,0,0ZM375,325c.9.49.76.82-.42,1C373.62,325.25,373.76,324.93,375,325Zm-9.3-7.58c-3.4-.89,3-4.85,5.39-2.13C370.6,315.64,366.13,317.53,365.66,317.4ZM362,287.91a59.44,59.44,0,0,0,8.35,10.59s-2.93,2.65-2.21,5.24c-3.54-3-5.45-8.4-5.41-9.13a2.07,2.07,0,0,0-2.09-2.26C361.55,291.77,362,289.26,362,287.91Zm-6.29,59.88a1.64,1.64,0,0,1-1.89.17A1.84,1.84,0,0,1,355.67,347.79Zm-82-195c-.19.75-.62.83-1.28.27C272.75,152.36,273.17,152.28,273.65,152.79Zm-15.72-22.3c-.36.19-1.94-1-1.27-1.48C256.72,129,259.51,129.72,257.93,130.49Zm-.22-25.83c-1.5.15-1.39-.74.71-1.35C259.41,103.93,259.18,104.37,257.71,104.66Zm.83-1.51c.49-1.64,6.48-4.1,6.08-3.62C263.7,101.18,261.68,102.39,258.54,103.15Zm-4.85,35.64c-.12-.4,2.73-.58,1,1C254.32,139.49,254,139.13,253.69,138.79Zm-10.05-10.85c.47.55.21,1.11-.8,1.68C242.56,130,242.32,128,243.64,127.94Zm-38.82,41.4c-.13-.34-.27-.69-.39-1.05-.15-1,3.51-1.16,4.66-1C207.87,168.16,206,168.5,204.82,169.34Zm5.69-17.61c0,.13-1.23-2.38-1.13-2.19,0-.32.06-.64.09-1,1.2.26,1.63.76,1.32,1.48C211.24,150.64,211.16,151.19,210.51,151.73ZM207,147.51c-.28-1.21.73-1.88,3.06-2C213.05,145.33,209.4,147.47,207,147.51Zm10,6.61c-1.25,0-2.05-.31-2.41-1C214.56,151.17,219.44,153.64,217.06,154.12Zm14.31,14.1c-.74-.24-1.32-.53-.78-1.09C232.23,167.2,232.26,167.22,231.37,168.22Zm7.51-23.12L238,146C234.93,144.59,239.07,144.67,238.88,145.1Zm-7.94-42.41q2.12.39.87,1.65C230.59,104,230.31,103.48,230.94,102.69Zm.49,4.94c1.47.45,1.51.88.15,1.28C230,108.41,229.93,108,231.43,107.63Zm-.3,33.92c1-3,2.29,3,2,2.17.54,1.3-.36,5.36-1.47,6.53C229.43,147.74,230.31,144.19,231.13,141.55Zm-2.19-8.62c-1,.79-1.49.83-1.58.1C227.92,132.32,228.46,132.29,228.94,132.93Zm-2.67,31.91c1.28.73,1.11,1,2.92,1.72-2.14,0-5.25,1.52-7.65,1.82C221.11,168.45,225.8,164.57,226.27,164.84Zm-4.8-18.25c-.24.06-4,1.25-4.15.12C217.22,145.39,220.87,146.46,221.47,146.59Zm-5.62-21c-.85.2-1.27,0-1.27-.6C215.62,124.43,216,124.63,215.85,125.59Zm-2.45,7.63c-.31-.28-.63-.55-.92-.83C212.11,131.82,215.85,131.88,213.4,133.22Zm-1.12-6.16a.71.71,0,0,1,.09.07C212.11,127.36,212.25,127.09,212.28,127.06Zm-1.39-22.7c.53.78.21,1.54-.93,2.26-.32-.53-.65-1.07-1-1.61C209.16,104.18,209.8,104,210.89,104.36ZM209,140.7a1.32,1.32,0,0,1,1-.23c1.82.06,2,.93.73,2.62a.68.68,0,0,1-.58,0C208.67,142.7,208.31,141.9,209,140.7Zm-4.52,3.6c.09-.6.7-.93,1.83-1C210.36,143.86,203.65,145.48,204.48,144.3Zm.28,1.68a.09.09,0,0,1-.1.07C204.05,146.27,204.55,146,204.76,146Zm.18-26.41c.1.44-.23.71-1,.81.11.26-2.05,1.11-2.38,1.19,1-.28,1.43-.94,2.38-1.19C203.76,120,204.09,119.72,204.94,119.57Zm-1.53,28.78h0l1.34-.59h0c.19-.08.15-.06,0,0-.38.6-.83.8-1.34.59h0c-.37.49-1.09.62-2.16.4C201,148.75,202.11,147.87,203.41,148.35ZM168.3,135.28c.18-.29,2.9-2.17,3.72-1.61.28.38.56.76.83,1.16C172.94,135.85,169.15,135.74,168.3,135.28Zm4.28,18.57c-1.15-.43-2.45-2.78-.26-2.09C173.83,152.25,173.22,153.19,172.58,153.85ZM162,215.05a4.87,4.87,0,0,1,3.84.5C164.2,216.05,160.78,215.31,162,215.05Zm6.15-4.81c.47-1.15,1.51-1.56,3.09-1.24C171.13,209.87,170.11,210.28,168.11,210.24Zm3.37-3.93c-1.27.13-1.49,0-.66-.41C172.39,205.77,172.61,205.92,171.48,206.31Zm4.26.64c-.89-.28-.73-.54.43-.78C177.14,206.57,177,206.83,175.74,207Zm7-54.45c-1.25.47-1.85.44-1.78-.11.46-.22.95-.43,1.42-.64Q183.13,152,182.75,152.5ZM180,147.79c0-1.13,2.31,1.49,2.45,2.14C179.4,149.9,180,150.25,180,147.79Zm.4,17c2.53.15,1.73,2.14,1.25,1.64C180.41,165.93,180,165.38,180.36,164.78Zm2,4c.35-.54,3.6,1.16-.42,1.91C181.23,170.09,181.37,169.44,182.32,168.77ZM184,197.25l-.28,0C183.8,197.28,184.3,197.1,184,197.25Zm2.62-16.49c-.88-.81-.43-2.22,1.1-.83ZM188.49,143c.08-.36.15-.72.24-1.08C190.28,143.09,188.49,143.19,188.49,143Zm4.7-29.51c-.38-.35-1.45-3-.29-1.82A1.29,1.29,0,0,1,193.19,113.52Zm6.36,95c.42-.8,1-.83,1.67-.07C200.54,209.32,200,209.35,199.55,208.5Zm4.87,41.31c.22,0,.34,0,0,0Zm57.14,50.13a1.9,1.9,0,0,1-1.68-.15A1,1,0,0,1,261.56,299.94ZM178.64,327.2c.26.31.52.61.76.92S177.84,327.83,178.64,327.2Zm1.93,7.1,1.82-.2A2.09,2.09,0,0,1,180.57,334.3ZM184,330c.68-.62,1.08-.64,1.18-.06C184.39,330.73,184,330.75,184,330ZM367.82,119.7a2.83,2.83,0,0,1-2.77-.45C366.51,119,367.42,119.1,367.82,119.7ZM210.06,85.6c-.16.84-.59.86-1.28.06C208.93,85,209.37,85,210.06,85.6ZM193.3,89.82c-.24.53-.77.58-1.56.18Q192.1,88.91,193.3,89.82Zm-3.08,3.29c1.17.34,1.17.63,0,.87C189.16,93.58,189.16,93.29,190.22,93.11Zm-11-3.31c.31.35.51,2.29-.83,2.13S178.5,90.05,179.21,89.8Zm-35.69,29.66c.66.42.46.72-.58.88C142.35,120,142.54,119.69,143.52,119.46Zm-20.45,6.8c.52,0,.83,1.7-1.44,1.43C121.72,127.26,121.79,126.28,123.07,126.26ZM116,134.43q.14,1.32-1,.51Q114.68,133.8,116,134.43Zm-9.76,14.91c.76.49.67,1.11-.32,1.82C105.53,150.92,105.11,149.17,106.19,149.34Zm-4.59,1.58c.94-.87,3.65.64,1.43.84C101.34,152,100.85,151.68,101.6,150.92Zm1,2.3a4.35,4.35,0,0,1,2.76.41c-.69,0-4.71,2.63-4.39,2.51C99.36,156.79,97.54,154.39,102.61,153.22ZM74.26,253.28c-1.54-.58-1.68-1.19-.36-1.86C76.52,250.71,73.53,254.28,74.26,253.28Zm7.9,17.17a1.47,1.47,0,0,1,1.62,0A1.59,1.59,0,0,1,82.16,270.45Zm-2.82-55.31c-.89.79-1.57.91-2,.36A1.5,1.5,0,0,1,79.34,215.14Zm1.59,2.14,1.25.85c.52.51.84.77,1,.9s.19.15,0,0c-.35-.2-1.28-.52-1.75.93-.25.75,1.11,3.55-1.53,3.53.36,0-3.77-4.38-4-3.22C76,219.81,78.05,216.83,80.93,217.28Zm-7.54,56.18c1.1-1.53,2.33,0,4-.2C77,274.08,73.34,273.55,73.39,273.46Zm3.27-17.87c-.42-1.17.19-1.66,2.53-1.77C79.07,254.66,78.24,255.25,76.66,255.59Zm5,21.28c-5.1-.12,1.38-2,1.38-2.11C84.13,276.17,83.66,276.87,81.64,276.87Zm15.67,58.28c-1-.62-.9-1.12.24-1.48l1.48.74Zm2.22-7-3.49.71c-1.14-.64-.64-1.14,1.46-1.51C99,327.32,99.67,327.58,99.53,328.11Zm8.22,13.39c-1.63-1.32-1.56-1,.07-1.79C109.7,340.4,109.68,341,107.75,341.5Zm2.76,10.76a1.78,1.78,0,0,1-.88-.46l1.25-.87C112.15,351.44,112,351.89,110.51,352.26Zm25.12,32.52c-2.27-1.32.8-1.77.73-1.31ZM351,348c1.27.33-2,3.14-3.49,1.92C346.82,349.32,350,347.72,351,348Zm-7.3-10.7,1.62.94C341.87,339.24,343.54,337.23,343.74,337.3Zm-46.2-96.39a1.42,1.42,0,0,1-1.88-.07A1.76,1.76,0,0,1,297.54,240.91ZM296.11,243a5.36,5.36,0,0,1,3.84.42c.28-.09,1.22.58,1.22.73a13.11,13.11,0,0,0-1.22-.73C291.68,245.71,297.36,242.93,296.11,243Zm-1.51-37.36c1.79-2.89,2.83,3.93.21,2.24C293.56,207.27,294.13,206.38,294.6,205.64Zm-1.93,3.13c-.34.17.51,1.82-1.91,1.08Zm-2.88,3.86c-.64.57-1,.6-1,.08C289.49,212.06,289.82,212,289.79,212.63ZM284,250.86c-.78.58-1.39.56-1.82-.09A1.12,1.12,0,0,1,284,250.86Zm-4.93,29.54c0,.3-1.58,1.5-1.55.52C277.68,280.41,278.2,280.23,279.11,280.4Zm-14.87-79.83c.66.19,1.49,1.15,2.36,1.45C263.86,201.49,262.52,200.06,264.24,200.57Zm-16-31.88c.91.16,2.91.34,2.56,1.11C250.2,171.09,248.08,169.26,248.22,168.69Zm.52,8.8c.48.38.4.75-.24,1.12C247.09,178.23,247.18,177.86,248.74,177.49Zm-19.85,25.34c.56.33.47.6-.28.8C227.9,203.17,228,202.9,228.89,202.83Zm-2.71,25.53c-.14-.32-.29-.63-.43-1S228.65,227.68,226.18,228.36ZM215,226a2.57,2.57,0,0,1-.43,1.29C212.39,227.78,213.93,226.3,215,226Zm-.07,20.59c.24-.54.9-.84,1.93-.91C216.71,246.28,216.07,246.58,214.89,246.58Zm-7.71.18c-2-1.34,12.47-8.52,12.82-8.3C219.81,238.78,209.14,248.06,207.18,246.76Zm17-39.27-1.7-.71C226.2,205.45,225,207.62,224.18,207.49Zm-1,19.56c.26-.2.15-.06-.3.41C221.92,228.21,223.3,227,223.16,227.05Zm-.25,16.42c1.08-1,1.26-2,3-1.5C224.17,244.09,223.19,244.59,222.91,243.47ZM225.38,270c.66-.55,1.46-.42,2.4.4C226.51,271.19,225.71,271.05,225.38,270Zm3-10.71c1,.36,1.13.77.32,1.25C227.48,260.3,227.38,259.88,228.33,259.33Zm1.62,5.21q0,.76-1.29.75C228.42,264.72,228.86,264.47,230,264.54Zm-.31,5.67a1.66,1.66,0,0,1,.94,1.6C229.83,272.92,228.25,271.39,229.64,270.21Zm.41-5.79c-1-.69-1-1.34,0-2C231.43,263.05,231.43,263.7,230.05,264.42Zm.28-14.82c.11-.53.68-.67,1.72-.41C231.88,249.79,231.3,249.93,230.33,249.6Zm8.13-46.46c1.93-1.24,8.06-1.46,10.65-1.28C247,203,241.24,203.63,238.46,203.14Zm4.33,52c-1.58.11.19-.82.78-1.14l0,0c.32-.12.25-.09,0,0Q245.49,254.92,242.79,255.14Zm3.65,1.87c.29-.46.76-.41,1.4.13C247.41,257.76,246.92,257.73,246.44,257Zm2.32-25.52c.19-.63,3.21,5.63,2.14,5-.4.24-1.36-.83-1.18-.68a.07.07,0,0,0,0-.06C246.38,236.12,248.48,232.59,248.76,231.49Zm1.67-31.33c.83.79.45,1.34-1.15,1.65C249.13,201.31,248.71,198.23,250.43,200.16Zm-1.72,59.59c.61.41,1.22.84,1.81,1.25C246.8,261.33,249.25,260,248.71,259.75Zm.31,7.1c-2,.27-1.34-1.19,2-.62C250.39,266.44,249.72,266.65,249,266.85ZM250.17,238c-.95-.57-.11-1.11.64-1.53C251.4,237,251.77,239,250.17,238Zm.29-55.27c.3.33.59.67.89,1C249.61,184.53,248.17,183.89,250.46,182.77Zm1.6,6.88c-.78-.35-.87-.71-.22-1.09C253.23,188.79,253.3,189.15,252.06,189.65Zm1.83,90a1,1,0,0,1-.37-1.68C255.15,277.51,255.28,278.07,253.89,279.63Zm5.33-7.35c.28-.67.62-.63,1,.15C259.93,273.17,259.58,273.12,259.22,272.28ZM261.39,194c.33-.28.66-.56,1-.83C263.72,194.68,261.32,194.08,261.39,194Zm1.82,75c0-.53.46-.58,1.27-.18C264.41,269.52,264,269.58,263.21,269Zm-.83-38.74c0-.36,0-.7,0-1C267.24,229.74,262.68,231.19,262.38,230.28Zm4.86-3.81c1,.44.75.8-.62,1.1C265.91,227.17,266.11,226.8,267.24,226.47Zm-.33,5.46c0-.47.51-.55,1.41-.22A1,1,0,0,1,266.91,231.93Zm1.79,33.39c-.64-.47-.36-.86.8-1.17C270.47,264.63,270.21,265,268.7,265.32Zm-.57-59.89c.12-1.44,4.34-.75.24-1.84C273,204.54,268.29,204.72,268.13,205.43Zm3.11-3.64c0-.52.57-.77,1.58-.75,2.28-.18,1.42-1.82,4-1.87C278.33,199.17,272.23,203.45,271.24,201.79Zm-3.65,125.53c.35.63,7.17-6.44,7.24-6.49.75-.49,2.64,2.79,2.59,2.52.28,1.81.92.47-.81,2.59.85-1-4.1,1.62-4.35,1.77-.93.55-7.88,5.32-6.94,5.91a11,11,0,0,0,1.82,0c-.26.44-7.17,3.48-8.53,3.75.23-1.87,4.22-4.28,5.89-6,.38-.4.26-1.43.82-2.1S268.41,328.68,267.59,327.32Zm18.19,3.81c-.09,0-.09-.05,0-.1-.75-.58-.59-1,.47-1.39.54.48.38.94-.47,1.39C286,331.38,285.48,331,285.78,331.13Zm-.18,0-.86.44C284.8,331.28,285.08,331.13,285.6,331.15Zm2.78-14.79q-2.13-.87.09-.57C289.46,316.08,289.44,316.27,288.38,316.36Zm1.86,35.6c-.24.62-.68.74-1.3.33C289,351.59,289.48,351.47,290.24,352Zm5.47-18.17c-.62-.35-.19-.36.23-.39C295.87,333.53,295.78,333.67,295.71,333.79Zm.09,14.45-.14,0h0C295.67,348.15,295.66,347.11,295.8,348.24Zm-2-23.37c.1-1.89,3.4,0,4.13.1C297.45,324.93,293.68,327.24,293.84,324.87Zm-.47-5.09-1.7-1.25C294.79,317.18,295.31,318.08,293.37,319.78ZM304,368.69c-.24.55-.47,1.09-.69,1.63C303,369.72,302.66,369.1,304,368.69Zm5.68-.1c.54,1-.64,1.69-1.47,2.43C307.85,370.06,308.43,369.27,309.64,368.59Zm2.38,13c.06,0-8.86,1.5-5.29.15C313.83,379.09,309.14,381.88,312,381.63Zm2.89-19.25c.85.37.69.78-.51,1.23C313.9,363.85,312.75,363.21,314.91,362.38ZM311.43,366c.12-.55.56-.74,1.31-.61C313.36,366.09,310.86,366.82,311.43,366Zm-2.81,30.09s.07,0,.09-.06C309.19,395.86,306.34,397.1,308.62,396.06Zm-11.14,15a1,1,0,0,1-1.42,0A1,1,0,0,1,297.48,411Zm-14.22.4c-.33-.53-.09-.94.73-1.22C284.14,410.67,283.9,411.07,283.26,411.42Zm3.66-4.71a2.22,2.22,0,0,1-1.87-.4C285,406.31,288.33,406.55,286.92,406.71Zm.72,3.55c.5.67.31.93-.58.76C286.78,409.73,287,409.49,287.64,410.26Zm6.93-.69c.14-.05-1.2.75-1.43.53C288.4,412.15,295,409.06,294.57,409.57Zm-.33-3.07s.31-1,1.25.77Zm3.19-.25c.28-.29.56-.58.85-.86C300,406.65,297.17,406.87,297.43,406.25Zm5.09-15.41c.63.59.35,1-.81,1.36C300.85,391.58,301.13,391.12,302.52,390.84Zm5.06-6.53c1.49.41,1.4.85-.28,1.3C306.34,385.19,306.45,384.75,307.58,384.31Zm-26.89,22.86c4.79-3.35,6.27-6.49,6.37-10.22,0-.26-2.31-.65-2.17-1.93,0-.28,5.8-6,1-3.67.42-2.14,4.32-4.05,7.22-5.47,4.78-2.34,3.84-5.19,6.05-7.86,1.7-2.07,6.46-4.64,8.91-6.77C307.72,376.28,286.19,408.38,280.69,407.17Zm-12.93,1.14c.74-2,6.78-4.75,9.26-6.64.45-2.15,3.75-4.16,7.42-5.1a45.53,45.53,0,0,0-1.91,4.56c1.21,1.1-10.25,8.73-11.17,9C268.86,411,266.18,412.59,267.76,408.31Zm11.64-85.63a7.32,7.32,0,0,1,3.56.07A4.3,4.3,0,0,1,279.4,322.68ZM276,343.41c-1.17-.58-1-1.09.5-1.51Q279,342.37,276,343.41Zm1.33,2.63c1.12.34.58,1.12.08,1.55C277.34,347.34,276.52,345.81,277.28,346Zm9.11,31.28a11.83,11.83,0,0,1,.6-2.19v0s.32-.12,0,0c1,1.23.79,2-.6,2.19-.32,1.88-2.89,4-4.49,5.6C280.64,384.23,282.36,377.85,286.39,377.32Zm-.68,14.16a3.27,3.27,0,0,1-2.9,1.58C282.91,391.63,283.12,391.51,285.71,391.48Zm-6.12,17.13a3.33,3.33,0,0,1,1.08-1.42c3,1.42,2.9,3.89-2.45,4.28C278.33,410.4,280.72,409.41,279.59,408.61Zm21.49-36.16c0-.83.61-1.52,1.88-2.05C303.27,370.3,302.09,373.7,301.08,372.45Zm-16.5-40.74h-.1c-.72.55-2.75,2.27-1.85.83.18-.57.8-.84,1.85-.83C284.7,331.53,284.79,331.48,284.58,331.71Zm-1.43-11.13s-4.95.33-3-1.09C283.4,317,284.79,321,283.15,320.58Zm-3-10c-2-.93-.05-1.36,1.92-.61Zm1.17,10.36c-.75.57-1.5,1.14-2.23,1.71C278.57,321.26,278.76,321.09,281.3,320.9Zm-2.89,15.75c-1.27.08-1.56-.09-.85-.48C279,336,279.3,336.19,278.41,336.65Zm-18.06,12.54a3.65,3.65,0,0,1-1.2,1.13C258.54,349.22,260.19,348.36,260.35,349.19Zm-5.46-17c-.41-.44-.33-.87.23-1.28C255.74,331.32,255.67,331.75,254.89,332.15Zm-16-12.26c1-.81,3.72-.56,4,.26C245.58,319.87,237.44,321.1,238.86,319.89Zm-17.16-8.5c.12-.59.22-1.17.35-1.76C223.12,310.55,223.05,310.84,221.7,311.39Zm-8.18,15.29c-1.2.15,1.68.6-2.47.59C211,326.69,211.78,326.49,213.52,326.68Zm-1.93-22.38a13.64,13.64,0,0,1,1.28.78C212.15,305.08,211.71,304.82,211.59,304.3Zm2.69,25.79c.19,1.09-2.36.75-3.54,1C210.72,330.09,214,328.85,214.28,330.09Zm19.14-13.76c2.09.41,2.8,1,2.12,1.81C233.41,318.52,232.83,317,233.42,316.33Zm18.85-4.74c.71.82-.78,1.66-1.88.64Zm-3.46-19.28-.93-.07C248.26,292.09,248.61,292,248.81,292.31Zm1.84,21.75c2.45.63-2.37,2.83-2.51,3.63C247.91,319.09,245.7,312.84,250.65,314.06Zm-7.05-4.39a4.66,4.66,0,0,1,3.29.33C240.72,310.52,244.31,309.71,243.6,309.67Zm-1.11-2.12c.9.73-2.12,1.29-2.9,1.3-.23,0-3.27.09-3.14-.16C236.81,308.18,241.8,307,242.49,307.55ZM234,310.68a1.29,1.29,0,0,0-.33.27C233.55,311,233.79,310.65,234,310.68Zm-10.45-15.83c.78.11,3.4.14,3.61.7-1.08.26-2.16.52-3.23.76S223.56,294.79,223.51,294.85Zm-10.9-11.35a1.29,1.29,0,0,1-1.89.05C211.26,282.77,211.88,282.75,212.61,283.5Zm-12-13.72c0,.6-.76,1-2.25,1.09C196.86,269.92,199.69,269.2,200.59,269.78ZM189,310.57c.52-.05,1.73-.62,1.75.11C190.54,310.1,189.82,310.5,189,310.57Zm10.83-5.76s2-2.28,1.88-.88C201.55,304.42,200.93,304.72,199.86,304.81Zm3.67,21.71c-.94-.16-1-.44,0-.84C204.54,325.91,204.54,326.19,203.53,326.52ZM212.34,339c-1-.76-4.1-2.25-3.77-3.13.45-1.24,5.56-3.11,7.78-2C215.69,333.54,212.79,338.74,212.34,339Zm6.46-6.88c-3.41,1.31-3.67-4,.36-3.37C220.36,329,219.58,331.84,218.8,332.15Zm.12-9.84c.19-.52.78-.71,1.77-.6.37.25.71.5,1.08.76C220.54,323,219.6,322.94,218.92,322.31Zm5.56,5.63c-.87-.51-2.85-2.44-1.18-3C226.75,325.81,224.1,327.73,224.48,327.94Zm3.84-2.56c-1.18,1.11-7.18-6.61-1.15-5.19C230.63,321,230.21,323.65,228.32,325.38Zm1.65-7.59c-1.32-.18-1.25-.49.19-.94C230.8,317.17,230.73,317.49,230,317.79Zm2.95,32.42a1.35,1.35,0,0,1,2-.07A1.6,1.6,0,0,1,232.92,350.21Zm-.69-18.29c-.84-.9,3-5.23,5-5.3C237.12,326.62,233.91,331.59,232.23,331.92ZM236.92,350c1.3-.26-.42-2.9,3.5-2.11C240.32,348.43,237.64,351.1,236.92,350Zm3.52-26.24c-1-.47,2-3.7,3.65-3.46C245.22,320.45,241.45,324.18,240.44,323.74Zm5.49,30.14c.1.51.63.81,1.55.88C248,356.28,245.41,355.17,245.93,353.88Zm4.19-11.05c-1.81-.08-2-.36-.58-.86C251.28,341.89,251.47,342.17,250.12,342.83Zm1.11,1.8c-.28-.61,0-1.18.83-1.73C252.74,342.14,253.21,343.91,251.23,344.63Zm2.69-6.62q1.62-1.8,4.52-.56c-.73.39-2.54,1.22-1.62,1.85a6.73,6.73,0,0,0,2.24-.21c-.21.22-1.7,2-2.62,2,.62,0-3.74-2.17-3.56-2.07C253,338.61,253.3,338.28,253.92,338Zm4.27,7.72-1.3.7c-.12.06-.16.05-.1-.05C257.88,345.76,257.59,345.75,258.19,345.73Zm-4.28,1.09c-1-.34.77-2,1.14-.6C255.41,347,255,347.16,253.91,346.82Zm1,.24c0-.1.22-.17,0,0Zm.17-.06c1.55-.81,2.09-.76,1.6.18C255.83,347.88,255.31,347.82,255.1,347Zm.64,9.9c.92-.3,2.23-.1,2.4-.88a3,3,0,0,0-2.26-.52c-2-.47,6.47-2.58,6.27.14C262.07,356.74,256.84,357.78,255.74,356.9Zm4.78-5.45a2.81,2.81,0,0,1,2.73.33C261.91,352.42,261,352.31,260.52,351.45Zm8.18-5.87c-.94-1.61-.34-2.56,1.79-2.83C272.21,343.6,271.62,344.55,268.7,345.58Zm6,11.7s0,0,0,0c-.54.76-2,2.75-2,1.2,0-.7.65-1.11,2-1.2C274.87,357,274.94,356.87,274.7,357.28Zm.36-8.08c-.42-1,.28-1.51,2.13-1.46h0a22.75,22.75,0,0,0-2.13,1.46h0S275,349.22,275.06,349.2Zm1.74,25.63q-2-.91,0-1.38C278,374.14,278,374.61,276.8,374.83Zm1.51-10.8c-1-.19-1.18-.57-.56-1.09C278.46,363.2,278.64,363.57,278.31,364ZM274,395.42c.78-.54,9.57-4.89,7.19-3.23-1.08.74.07,1.76-.9,2.91-.8.95-4.07,2.49-5.44,3.49-1.84,1.36-8.48,8.28-12.73,8,1.74-2,4.17-3.67,6-5.58-.17.18-1.25-.68-.1-1.77S272.28,396.55,274,395.42Zm-1.65-14a2.24,2.24,0,0,1-2.33.17A1.42,1.42,0,0,1,272.3,381.38ZM269.07,395q2,1.13-1.41,2.59a1.52,1.52,0,0,1-1.09-.25C266.39,395.46,267.23,394.68,269.07,395Zm-3.44-7.16c-1.18-.68-.7-1.41,1.49-2.19C269,386.37,265.61,387.81,265.63,387.82Zm0-10.49-1.56.51C261.93,377.07,264.64,377,265.61,377.33Zm-1.75,23.91c1,0,.05,4.09-3.7,3.27a3.72,3.72,0,0,1,2.17-2.05C262.35,401.89,262.87,401.48,263.86,401.24Zm-2-9.21c.4,1-3.17.93-4.05.71C255.76,392.26,261.16,390.19,261.88,392Zm-3.58,2.85c.33.27-1,1.32-.75,1C256.8,395.46,257.55,394.24,258.3,394.88Zm-1.81,10.75c-.09.59-.22,2.25-2.38,1.61A6.67,6.67,0,0,1,256.49,405.63ZM254,407.18c.17.07.15.14,0,0Zm0,.12c-.07.9-1.17.72-1.22.85C252.81,407.72,253.21,407.43,253.94,407.3Zm.17,4c.33.7-.05,1.36-1.14,1.93C252.36,412.37,252.74,411.71,254.11,411.27ZM250,400.71c1-1,1.21,1.32,1.2,1.36,0,1-2.61.05-2.85.71C248.08,402,248.62,401.36,250,400.71Zm-1.74,10s0,0,0,0c-.28-.71-.75-2,0-1.39,1,.45,1,.92,0,1.39C248.48,411.12,248.59,411.35,248.24,410.68Zm.64-32.6a3.88,3.88,0,0,1-1,1.43A2.09,2.09,0,0,1,248.88,378.08Zm-1.09,1.44c.36,1.23-2.9,2.12-2.74,2C245.2,380.53,246.12,379.88,247.79,379.52ZM234.9,418.41a1.63,1.63,0,0,1,1.44-.74C236.45,418.23,235.94,418.73,234.9,418.41Zm-42.75-49.58c.45-.7,3.57-2.52,3-1.71S193.73,368.52,192.15,368.83Zm2.14,13c-1,.61-1.44.52-1.39-.28C194,380.74,194.45,380.83,194.29,381.86Zm-2.64-21.43c-.23-.29-.44-.59-.66-.89C197,359.52,192.07,361,191.65,360.43Zm14.21,29.28.06,0a10.3,10.3,0,0,0,1.34-.79c-.26.41-.89.57-1.34.79Zm3.18,9.85c.17.68-.39,1-1.65.9C207.11,400.07,208.6,398.19,209,399.56Zm4.29-5q1.69.53-.42,1.08C212.54,395.27,212.68,394.92,213.33,394.58Zm1.47-29.85c.56.33.82,1-.24,1.13A.81.81,0,0,1,214.8,364.73Zm4.85,21.6c1.37,1-.7,2.38-.63,2.44C218.19,388,218.4,387.19,219.65,386.33Zm2.95,14.23c-.07.12-.13.25-.21.37C221.79,400.59,222.27,400.6,222.6,400.56ZM240.44,407c.37.24,1.43,1.87,2.1,1.77.28-.3.58-.59.87-.88,3.79,2-5.47,5.1-5.45,5.22C237.77,411.85,238.79,408,240.44,407Zm-1.74-30.1c0-.07-.52-.27,0-.05,0,0,0,0,0,.05.37.66.14.95-.67.9C238.67,377.7,238.9,377.41,238.7,376.94ZM244,406.7c-.14-.84.4-1.56,1.61-2.17,0-.17,0-.21.07,0l-.07,0C245.77,405.26,246.68,408.67,244,406.7Zm.44-38.72,0,0,.07,0-.1.05Zm-.58-2.23c-1.63,1,2.76,2.06-1,2.64C239.75,368.89,243.45,366,243.9,365.75ZM241,370.51c1.79.49-3.07,6.12-4.08,4.43C236.31,373.86,236.36,369.25,241,370.51Zm-11.88-14.12c.4.32.37.63-.14.94C228.61,357,228.66,356.69,229.15,356.39Zm6.48,23.31c-.23.53-10.72.81-10.77.71C222.13,375.54,236.08,378.62,235.63,379.7Zm-12.84,20.63c.06-.39.09-.77.12-1.15C223,399,225.12,398.42,222.79,400.33ZM222,378.8c3.7.33-1.06,2.58-.89,2.13C221.2,380.81,218.57,378.5,222,378.8Zm-1.46,5.54c1.84,1-1.65,1.88-2.78,1.92C218.09,386,220,384,220.57,384.34Zm-2.95,1.92c.14,0-.06.55,0,0Zm-.77,3.63c0-1.33,2.4.47.89.65C216.92,390.53,216.63,390.31,216.85,389.89Zm-1.91-28.59c1.17.44,1,1.79-.54,1.94C213.69,362.67,213.86,362,214.94,361.3Zm-1.51-4.6c1.11.27,1.11.47,0,.61C212.44,357.17,212.44,357,213.43,356.7Zm-.21,18.87q.24.74-1.14.78C212.22,376.21,213,375,213.22,375.57Zm-.41,8.72c-.11,1.12-1.2,1.77-1,3C210,385.93,209.82,385,212.81,384.29Zm-3,13.44a2.3,2.3,0,0,1-2.17.39C207.72,397.6,208.45,397.47,209.82,397.73Zm-2.68-49.54c1,.33-.88,2.07-1.33.71C205.48,348.22,205.93,348,207.14,348.19Zm-5.76,45.46c.69.76,0,1.91-1.57,2.17C199.69,395.38,201.22,393.48,201.38,393.65Zm-1.74-16.84c1.18.48,1.2,1,.05,1.54A1.17,1.17,0,0,1,199.64,376.81Zm-2.43-19.24c-2.1,1.3-4.24,1.2-3.3,2h0c-.23,0-3.35,0-3.06,0C182.37,357.93,198.37,356.82,197.21,357.57Zm-11.9,38.77c-.12-.72.47-1.19,1.75-1.42C188.66,394.74,185.66,397.87,185.31,396.34Zm.55-22.58c-.55,1.06,2.71-1.63.11,1.28C185,374.8,184.93,374.37,185.86,373.76Zm-2,4c-1.13.1-1.67-.18-1.63-.85.43-.37.87-.73,1.29-1.11Q186.62,377.21,183.9,377.77Zm-1.32-17.24-1.21-2C184.13,358.24,183.31,359.65,182.58,360.53Zm-3.09,19.32c.52-.33,1.18-2,3.2-1.12C187.18,380.58,179,380.16,179.49,379.85Zm2,2.89,1.46-.71C184.16,383.63,181,383.1,181.45,382.74Zm-3.14-1.63-1-.15C177.72,380.85,178.26,380.56,178.31,381.11Zm-1.18-.09c.27.38.08.74-.54,1C176,381.83,176.83,381.27,177.13,381Zm-1.76-14.36c1.57,1.37.32,3-1.77,4.25C172.39,371.59,174.31,367.64,175.37,366.66ZM167,363.8c.46-.57.92-.64,1.33-.2C168.16,364.25,167.71,364.32,167,363.8ZM166,357.87l2.07.32C164,359.68,165.71,357.88,166,357.87Zm-5.91-19.28-.08-.07C160.12,338.52,160.16,338.54,160.05,338.59Zm-1.6,8a5,5,0,0,1,2.71.09c-1.85.57-3.42,1.26-5.45.58C156.2,346.7,157.1,346.49,158.45,346.6Zm-9.79,33.58c.41.8,3.59-.14,1.61,2.59C148.59,385.1,148.41,379.7,148.66,380.18Zm19,17.95c-.47-.42-.16-.65,1-.71C169.19,398,168.88,398.21,167.7,398.13Zm6.4,8.33c-.95,0-1-.3,0-.74C175.16,405.73,175.18,406,174.1,406.46Zm3.44-3.63c.51-1.27.63-1.33,2.8-1.08A2.19,2.19,0,0,1,177.54,402.83Zm10.11-4.22c-3.16.39-4.56,2.19-7.14,3C182.27,396.16,183.76,398.9,187.65,398.61Zm8.27,19.12c.87-.78,1.3-.7,1.29.25C196.88,418.73,196.46,418.64,195.92,417.73Zm9,4.65c-.2-.52.28-.74,1.48-.66A1.73,1.73,0,0,1,204.88,422.38Zm2.09-5.12c.64.31.49.56-.45.76C205.54,417.72,205.7,417.46,207,417.26Zm.64,3.8c-1,.75-1.28.67-1-.2C207.07,420.27,208.67,420.33,207.61,421.06Zm15.44,4.48a2.38,2.38,0,0,1-.58-1.73C222.65,423,226.94,424.51,223.05,425.54ZM237.18,421c-1.64,3-.39,1.94-4.43,4.06C231.76,423.78,237.59,420.23,237.18,421Zm-.72-3.47c.06-.63.87-.78,1.67-.94Zm2.21-1.09a2.14,2.14,0,0,1,2.67-.18A3,3,0,0,1,238.67,416.42Zm9.26.3c-2.42.15.28-1.84.22-1.81C248.41,415.17,250.06,416.6,247.93,416.72Zm10.92,1.07a16.11,16.11,0,0,1,2.4-2.45c-.64.23-1.25.19-1.49-.3a4,4,0,0,1,2,.07s3.24-2.73,4.75-2.65C268.88,412.58,263.23,418.47,258.85,417.79Zm3.53,9.71c-.75-1,.36-1.92,2.47-1.33C264.55,426.86,263.73,427.29,262.38,427.5Zm9.05-8c-2.14-.6-1.81-3.12.73-2.8.95.39,1.27.91.94,1.56C273.31,419,272.75,419.38,271.43,419.51Zm3-2.31c-1.23-.34,0-3.23.44-3.62C276.81,412,278,418.24,274.45,417.2Zm6.95-4.26c-.1-.7.49-1.14,1.75-1.35C284.37,413.89,283.78,414.34,281.4,412.94Zm4.13,5c-1-2.27,5.37-6,7.66-7.78C295.35,412.25,289.34,417.12,285.53,417.94Zm12-4.74a1.44,1.44,0,0,1-.64-.05c-.54,0-1,0-.83-.09.46-.19.53,0,.83.09C297.55,413.15,298.28,413.14,297.5,413.2Zm1.84,4.13c.61-.69,1.06-.7,1.32-.05C300.09,418,299.64,418,299.34,417.33Zm4.14,3.48c-1-.53-.66-.95,1-1.28C305.35,420,305,420.42,303.48,420.81ZM307.75,405c.19.32.4.63.59.95C308.39,406.57,305.79,405.9,307.75,405Zm4.57,6.52c-1.56.8.16-2.22.69-2.6C313.88,408.33,313.74,410.76,312.32,411.5Zm3.09-4.33c-.75-.93,1.25-2.8,2.94-3.25A3.74,3.74,0,0,1,315.41,407.17Zm21.07-25.73c.21,0,.24.1.19.24,0,.35-.45.89-.38.7-.05,0,.31-.43.38-.7A.23.23,0,0,0,336.48,381.44Zm-.17,1c1.3.8,1.27,1.42-.14,1.87C334.74,383.9,334.78,383.29,336.31,382.47Zm5.16-6.07c-.73-.48-.47-.94.78-1.39C342.87,375.76,342.61,376.23,341.47,376.4Zm.92-1.55c.15-.56.52-.47.93-.11Zm10.82,9c-.19-.33-.63-.67.19-1C353.33,383.22,353.28,383.53,353.21,383.85Zm.38-1.09c.19-.32,2.64-2,3.35-.81C356.68,382.72,355.55,383,353.59,382.76Zm1.71-4.28c-18.14-7.43-28-17.37-28-17.37a58.23,58.23,0,0,1-.68,14c.92,3.08,2.41,8.44,3.88,15.24a3.31,3.31,0,0,1,1.59-.47,6.43,6.43,0,0,0-1.36,1.53c.23,1.1.46,2.24.69,3.41-.65.37-1.3.74-2,1.1-.16-.75-.32-1.48-.47-2.19-2.88,3.91-6.8,9.57-7.46,10.74-1.2-.54-3-1.63-2.54-2.58s5.57-7.14,9.54-10.23c-1.23-5.56-2.28-10-2.7-12.15-1.1-5.64-3.71-13.88-7-23.08a12.84,12.84,0,0,1-1.43,1,9.13,9.13,0,0,1,1-2.13c-4.42-12.08-10-25.68-15.06-37.15a1.14,1.14,0,0,1-.49.22c.05,0-.56-1.25-.22-1.83-5.08-11.48-9.51-20.57-11.45-23.43-2.62,1.76-6,7.6-6,7.6C280.89,307.2,268.86,323,260,328.91l-.8-.63c4.38-4.71,17.9-19.53,23.18-28.14l-4.79-4.09c.09.66-.36,1.27-.9.15-.44-.37-.42-.68,0-.95l-.38-.32,2.32-6.52s8.69,1.42,11.26.6,6.63-5.34,6.58-8.7-3.8-8.06-4.13-8.84,1.12-3.22,4.22-4.91c2.2.58,2.07-2.09.84-4.73,5.56.94,8.15,2.43,13.7,5.54,6.52,3.65,20.38,17.17,20.38,17.17s-3.32.89-3,3.8,7.8,5.81,11.78,6.89c.67,2.8,2.28,9.34,2.28,9.34s-4.06-.2-5.87.67-4.12,2.77-6.15,6.66c-3.59-.1-3.93,1.26-4.7,5.28s-2.26,5.09-2.25,5.92.87,2.28,3.68,2.29,3.2-2.19,3.56-2.2a44.69,44.69,0,0,1,4.21,2.49c.78.45,2.08,3.25,2.56,4.23s-.19,7.34-.55,11.1-7.25,11.89-7.34,13,1.61,6.33,1.61,6.33l-2.51.47a61.54,61.54,0,0,0,9.75,6.17l.08,0s.09,0,.15.16c2.61,1.34,5.36,2.59,8.18,3.72a2,2,0,0,1,2.32-1.15c1,.19.26,1.11-.68,1.8,3.53,1.36,7.13,2.57,10.67,3.62C358,376.26,356.64,377.38,355.3,378.48Zm-17.9-60.75c-1-.89-1.21-1.49,1.06-1.72C341.24,315.74,335.23,319.1,337.4,317.73Zm1.2,36c-.28.85-.62.89-1,.11C337.91,353,338.25,353,338.6,353.75ZM368,369c-.31-.48-.15-.89.45-1.24C368.56,368.22,368.18,370.46,368,369Zm9-6.9c.42-.57,1.32-.82,2.73-.72C380.86,361.24,379.45,362.84,377,362.1Zm7.14-.32c-.75-.4-.42-.67,1-.81C386.14,361.56,385.81,361.82,384.13,361.78Zm3-15.38c.3-.35.58-.7.87-1.07C388.68,346,388.42,346.31,387.13,346.4Zm.93-1.14s0,0,0,.06,0,0-.11-.06h.14c.11-.12.19-.25.3-.37C388.88,345.26,388.51,345.27,388.06,345.26Zm7.55-1.79c-.94.21-1.44,0-1.51-.52q.61-.18,1.2-.39C396.41,342.68,396.51,343,395.61,343.47Zm20.81-119q3.19-.06,3.66-1.74C425.28,225.91,415.32,224.45,416.42,224.52Z"/><path class="cls-1" d="M287.41,390.62c1.18.35,2,.18,2.52-.52C291.28,388.69,290.45,388.86,287.41,390.62Z"/><path class="cls-1" d="M393.73,191.4l-29.84,10.68,1.65,4.6,13.34-4.78.38,1.07c1,2.67.29,3.44-3.35,4.74-2.16.78-7.09,2.44-8.75,3.49l1.59,4.44a88.68,88.68,0,0,1,9.06-3.55c4.05-1.45,4.95-2.89,5.14-4.93.89,1,2.73,2.45,7.32.82l1.13-.41c5.37-1.92,6.23-5.25,4.61-9.79Zm-8.93,14.67c-1.19-.18-1.37-.66-.53-1.44C385.41,205.14,385.59,205.62,384.8,206.07Zm4.63-3-1,.36c-3.24,1.16-4.48.6-5.35-1.84l-.38-1,8.9-3.19.46,1.3C393,201.27,391.74,202.25,389.43,203.08Z"/><path class="cls-1" d="M469.19,233a60.91,60.91,0,0,1-5.43-6.63c.2.41,0,.91-.69,1-1.51.17-.9-1.45-.27-1.49a1,1,0,0,1,.83.32c-.93-1.32-1.82-2.68-2.65-4.06-.25,0-.41,0-.44-.07a.69.69,0,0,1,.07-.57A63.85,63.85,0,0,1,455,208.91c-4.63.21-8.83.42-12.13.59A75.3,75.3,0,0,0,455,234.28a16.27,16.27,0,0,1,2.18-.35A113.2,113.2,0,0,0,469.19,233Zm-4.55-1.19a11.55,11.55,0,0,1-4.72,0C459.93,231.2,463.93,231.56,464.64,231.77Z"/><path class="cls-1" d="M370.37,222.86l9.79-2,4.59,1.13-13.12,7,1.08,5.21,15.37-8.62c-1,.21-1.85.27-1.49-.34s1.77-.59,2.82-.4l1-.58,13.23,3.14-.54-2.6c-.71-.14-1.2-.38-1.08-.71a1.37,1.37,0,0,1,.83-.46l-.32-1.56c-4.62-.81-11.85-2.08-15.17-2.63v-.05l14-2.91-1-4.71-31,6.47Zm5.11,9.18a7.13,7.13,0,0,1,1.58-.67A5.49,5.49,0,0,1,375.48,232Z"/><path class="cls-1" d="M405.19,239.4c-.38-5.71-4.67-6.69-8.84-6.41-4.68.31-6.27,2.25-8.73,5.83s-3.46,4.37-6.85,4.6c-2.06.14-3.89-.23-4-2.13s1.14-2.65,3.49-2.81l2-.13-.33-4.87-1.88.12c-4.16.28-7.79,2-7.4,7.8s4.75,7.19,9.24,6.89c5.29-.35,7.22-1.94,10.4-6.91,1.85-2.91,2.92-3.41,5.15-3.56s3.5.19,3.61,1.77-1.2,2.08-3.4,2.23l-1.56.1.32,4.84,1.69-.12C401.47,246.41,405.57,245.23,405.19,239.4ZM384,246.84c.7-.28,1.18-.2,1.46.26C384.53,247.43,384.06,247.35,384,246.84Z"/><path class="cls-1" d="M291,389c2-.4,3.09-1.13,3.21-2.14C293.16,385.7,289.58,390.44,291,389Z"/><path class="cls-1" d="M227.36,323.2c.11,0,.16.93,1.81.92A2.25,2.25,0,0,0,227.36,323.2Z"/><path class="cls-1" d="M273,407.6c-.47.33-.4.65.21,1C273.5,408.2,273.43,407.88,273,407.6Z"/><polygon class="cls-1" points="315.84 123.8 309.4 120.81 312.91 113.25 319.67 116.39 321.58 112.28 310.39 107.08 297.04 135.81 301.47 137.87 307.49 124.92 313.93 127.92 315.84 123.8"/><path class="cls-1" d="M329.58,137.82l.92.67c2.29,1.67,2.17,2.68-.11,5.8-1.36,1.86-4.51,6-5.3,7.8l3.81,2.79a86.09,86.09,0,0,1,5.52-8c2.53-3.48,2.47-5.17,1.49-7,1.28.32,3.63.5,6.5-3.43l.71-1c3.37-4.61,2.21-7.85-1.68-10.69l-5.46-4-18.71,25.58,4,2.89Zm-.29,11.55c-.76-.52-.66-.76.35-.71C330.35,149,330.23,149.25,329.29,149.37Zm8.25-22.44,1.11.82c2.24,1.63,1.77,3.14.32,5.11l-.64.88c-2,2.78-3.37,3-5.46,1.48l-.91-.66Z"/><path class="cls-1" d="M339.76,165.13l3.54-2.84-5.83-5.52,6.88-7.24,5,4.79,3.09-3.26-5.05-4.79,5.63-5.94,5.33,5.06,1.74-1.83-.16-.09c-1.07-.67-.31-.86.8-.58l.75-.79-8.88-8.42-21.81,23Z"/><path class="cls-1" d="M376.44,175.25l-13.22,6.92c-5.24,2.74-6.77,6.16-4.38,10.72,2.49,4.76,6.22,5.71,11.6,2.9l13.11-6.86c5.4-2.83,6.55-6.62,4.32-10.88S381.81,172.44,376.44,175.25Zm5.26,9-14.09,7.37c-2.47,1.29-3.88,1.08-4.76-.61s-.17-3,2.17-4.19l14.12-7.39c2.37-1.25,3.93-1,4.74.57C384.8,181.78,383.93,183.11,381.7,184.28Z"/><path class="cls-1" d="M155.08,240.75l-3.77,11.61H139.1l5.26,3.83a2.49,2.49,0,0,1,1.81-1.4c2.89,2.48-.45,1.44-1.58,1.57l4.39,3.18-3.78,11.61,9.88-7.18,9.88,7.18-3.78-11.61,9.88-7.18H158.85Zm-5.17,15.07a1.85,1.85,0,0,1,2.31.13A1.53,1.53,0,0,1,149.91,255.82Z"/><rect class="cls-1" x="304.28" y="127.3" width="31.68" height="4.89" transform="translate(46.62 340.71) rotate(-59.71)"/><path class="cls-1" d="M358.31,174.46l-.06-.08c5.17-4.75,11.48-11.22,16.62-16.32L372,154.28c-6.07,3.49-14.57,8.31-20.35,11.8l-.05-.07c4.61-3.82,12.38-11,17.37-15.7l-3.15-4.13-22.57,22.66,3,3.94c6-3.39,13.67-7.5,19.42-11l0,.08c-4.78,4.49-10.74,10.6-15.85,15.62l3,4,28-15.49-3-3.92C371.77,165.84,363.46,171,358.31,174.46Zm-10.45-6.66a2.07,2.07,0,0,1,1.84-.09C348.9,168.28,348.29,168.31,347.86,167.8Zm8.86,8.28c-.54-.41-.25-.65.87-.71C358.33,175.9,358,176.13,356.72,176.08Z"/><path class="cls-1" d="M339.75,227.72c-1.13-1.33-6,.84-6.62-.34-.45-.85,3.85-.64,3.89-.65a24,24,0,0,0,4.29-.78l-.22-.67L351,218.1H338.76L335,206.49l-3.78,11.61H319l9.87,7.18-3.77,11.61,9.88-7.18,9.87,7.18-3.28-10.1C340.35,227.09,339.56,227.4,339.75,227.72Z"/><path class="cls-1" d="M447.68,161.47c-.12-.33,5.49,1.61,4.56,1.66,2.22-.13,3.18-1,5.85-1.08.23-.48.48-1,.72-1.44l-.18.13C457.88,161.25,447,159.58,447.68,161.47Z"/><path class="cls-1" d="M314.69,428.86a5,5,0,0,1,1.21-2.11,33.6,33.6,0,0,1,7-4.56c3.51-1.89,7.38-3.61,11.36-6.08a107.75,107.75,0,0,0,12.69-9A34.18,34.18,0,0,1,350.2,404a185.86,185.86,0,0,1-16.05,9.39L333,414q-3.53,1.8-7.14,3.43a4,4,0,0,1-1.32.6,182.56,182.56,0,0,1-59.69,15.21c-1,.08-2,.15-3.05.21a5.05,5.05,0,0,1,1.36.31l-1.44,1c-.79.27-1.42-1.06-.38-1.3-2.18.14-4.37.23-6.56.29-.56,1-1.47,1.88-2.13,1.57s-.57-.86-.37-1.53l-2.28,0c-1.27,0-2.53,0-3.79,0a4.48,4.48,0,0,1-.84.32,2.09,2.09,0,0,1,0-.35l-1.53,0c1,1.27,1.27,3.57-2.68,3.06,2-.95,1.27-2.45.41-3.15A184.13,184.13,0,0,1,80.27,320.5c-1.5,1.42-3.46,2.84-5.84,2.68A191.39,191.39,0,0,0,162.68,419c2.76-1.51,10.58-.85,10.28-.8-1.45.28-5.31,1.27-8.09,1.9,4.36,2.19,8.81,4.24,13.36,6.1a188.92,188.92,0,0,0,37.34,10.93l.19-.07c1.21-.2,1.54-.11,1,.29a188.6,188.6,0,0,0,20.61,2.49.88.88,0,0,1,1.5,0l0,0q3.39.21,6.81.28c1.18-.88,5.07-1.08,5.55,0a188.23,188.23,0,0,0,63.41-11.34ZM97.62,360.53c1-.36,1.52-.23,1.53.36C98.2,361.14,97.69,361,97.62,360.53Zm64.67,57.67c-.17,0-.12-.08,0,0S163.07,417.21,162.29,418.2Zm16.61,7.64a1.21,1.21,0,0,1,1.53.26C179.66,426.54,179.16,426.46,178.9,425.84ZM240.61,438c-.39-.35-.27-.72.37-1.12C241.57,437.42,241.45,437.8,240.61,438Z"/><path class="cls-1" d="M451.09,159.67c.05-.37.09-.73.14-1.09C450.67,158.92,450.71,159.28,451.09,159.67Z"/><path class="cls-1" d="M67.56,272.47a184.31,184.31,0,0,1,5.12-70.91c-2-.55-3-2-1.53-2.4a3.94,3.94,0,0,1,2.1.31,184,184,0,0,1,47.16-79.69c-2.4.12-6.55.16-5.62-1.17.34-.46,4.36,0,6.19.6A184.67,184.67,0,0,1,171.3,83.92c-.54-.54-1.33-1.45.91-1.66,1.27-.12,1.29.3.93.79a183.54,183.54,0,0,1,208,38.3c1.15-.52,2.3-1.1,2.11-1.26-1.41-1.16-2,0-1.77-1.55,3.84,1,.9-1,3.05-1.47a6.34,6.34,0,0,1,2.23.88A189.67,189.67,0,0,0,254.7,59.84c.35.18.35.44,0,.77-1.2-.26-1.54-.52-1.05-.78-1.21,0-2.42,0-3.63,0A189.86,189.86,0,0,0,104.44,127.7a3.31,3.31,0,0,1,1,.27,3.18,3.18,0,0,1-1.57.43,189.7,189.7,0,0,0-38,74.06c.24-.13.45.11.64.73-.43.63-.74.78-.94.46a190.15,190.15,0,0,0-3.77,73.45.76.76,0,0,1,.34.15,1.22,1.22,0,0,1-.29.23c.09.62.17,1.25.27,1.87C64.81,277.62,65.91,274.91,67.56,272.47Zm.27-48.6c-1.3,1-1.92,1-1.85,0C66.91,223.08,67.54,223.1,67.83,223.87ZM63,261.39c1.72.34,2.05.81,1,1.4C62.5,262.39,62.17,261.93,63,261.39Z"/><path class="cls-1" d="M196.42,484.8l11.48-10.14a63.63,63.63,0,0,1,84.2,0l11.48,10.14,6-14.16a63.58,63.58,0,0,1,75.75-36.52l8.8,2.47a2.36,2.36,0,0,1,.65-.35c1.13.33,1.61.64,1.47.94l3.92,1.1-.76-15.34a63.71,63.71,0,0,1,52.5-65.78L467,354.5,459.64,341a63.73,63.73,0,0,1,18.69-82l12.5-9-12.19-8.78c-1.32-.11-2.24-.2-2.22-.21a2.21,2.21,0,0,1,1.14-.6,63.48,63.48,0,0,1-5.17-4.28c-4.33-.14-8.62-.29-13-.28-.05,0-1.33,0-3.18.07A74.33,74.33,0,0,0,470.65,250a75.55,75.55,0,0,0-21.87,95.73,75.55,75.55,0,0,0-61.22,76.77,75.4,75.4,0,0,0-88.47,42.6,75.43,75.43,0,0,0-98.18,0,75.31,75.31,0,0,0-37.43-38.21c.22.43-.33.55-1.69.36-.43-.45-.08-.67,1-.65a75.5,75.5,0,0,0-50.38-4.1,75.59,75.59,0,0,0-41.61-70.13L70,353.86c-.13,0-2.26-2.65-2.21-2.57l.6-.1c-1.22-.55-2.45-1.08-3.7-1.58,0,.38-.41.7-1.42.9q-.73,1.65,4.38.78c-3.93,2.52-6.17,4-12.61,4.28-.16-2.09-1-2.05.92-3.63,1.54-1.31,5.12-.11,5.38-2.14.14-1.06-8.23,1.28-11.18.29-8.3-2.75,2-2.15,3.28-2.29.83-.08,2.67-.33,4.45-.49q-3.26-.94-6.63-1.58A74.87,74.87,0,0,0,59.78,314c-1.68.17-3.16-.06-3.84-1.12a7.09,7.09,0,0,1,3.88.45c0-1.31,0-2.61,0-3.92a6.79,6.79,0,0,0-.9-.38c-.27,0,.21-.3.87-.54A75.46,75.46,0,0,0,29.35,250,75.55,75.55,0,0,0,52,155.76a21.9,21.9,0,0,0-5,4c1.93,2.13-1.51.9-.89.53-2.19-1,2.19-4.64,5.56-5.09l-.44-.88c1.84-.35,3.64-.78,5.42-1.26,0-.16.15-.42.65-.84a4.56,4.56,0,0,1,3.7-.45A75.58,75.58,0,0,0,112.44,77.5,75.33,75.33,0,0,0,131.85,80,75.26,75.26,0,0,0,200.91,34.9a75.33,75.33,0,0,0,43.15,17.92.83.83,0,0,1-.18-.61c.91-.21,1.74.4,1.72.71,1.46.09,2.93.14,4.4.14A75.33,75.33,0,0,0,299.09,34.9,75.26,75.26,0,0,0,368.15,80a75.33,75.33,0,0,0,19.41-2.54,74.9,74.9,0,0,0,5.62,31.28,5,5,0,0,1,.76-.36c.75-.09,1.51-.16,2.28-.24,2,2.06-.66,2.53-2.4,2.17,1,2.27,2.12,4.48,3.32,6.64a3.1,3.1,0,0,1,2.24.12c3.07,1.23,2.51,3.47,0,3.54a75.38,75.38,0,0,0,49.44,33.62c-.66,1.25-1.26,2.51-1.84,3.77,1.79.12,3.36.27,4.34.38s7.19-.38,8.29.71a.91.91,0,0,0,.07-.14L467,145.5l-15.08-2.66a63.06,63.06,0,0,1-25-10.27,12.86,12.86,0,0,1-2.59,1.3c-.89-.54-.82-1.15.19-1.8a1.42,1.42,0,0,1,.84-.6,64,64,0,0,1-18.29-21,4.87,4.87,0,0,1-3.39,0,4.38,4.38,0,0,1,3-.72,62.63,62.63,0,0,1-3-6.5l-.43.07a1.76,1.76,0,0,1,.2-.64,63.36,63.36,0,0,1-4-25.61l.76-15.34-14.84,4.16a63.94,63.94,0,0,1-17.16,2.36,63.73,63.73,0,0,1-17.94-2.58c.57.79.88,2.27-1.76,1.42-1-.31-.55-1.47.56-1.78a63.52,63.52,0,0,1-39.45-35.93l-5.3-12.56-.49.07c-1.29-.11-.55-.73.05-1.11l-.24-.57L292.1,25.34A63.63,63.63,0,0,1,255.2,41a2.22,2.22,0,0,1,0,.82,7.73,7.73,0,0,0-.83-.76c-1.43.09-2.87.16-4.32.16-1.27,0-2.53,0-3.79-.13-.74,1.22-1.53,2.28-2,2.32s-.65-1.08-.61-2.53a63.43,63.43,0,0,1-23.41-7.1,5.94,5.94,0,0,0-.35.57c-.12-.31-.23-.63-.35-.94-1.41-.78-2.8-1.61-4.15-2.5a2.49,2.49,0,0,0,0,.67.85.85,0,0,0,.11.26c-.07,0-.11-.12-.11-.26a.83.83,0,0,1,0-.67,64.27,64.27,0,0,1-7.4-5.61l-6.84-6c-2.64-.34-2.81-1.22-2.64-2.33l-2-1.77-4.29,10.16c1.25,1.26,3.33,4.28-.69,3.44a1.29,1.29,0,0,1-.49-.64l-.51,1.21c-.13.31-.28.62-.42.93a2.2,2.2,0,0,1,.93-.19q2,.74,1.41,2.28c-.62,1-2.45-.25-2.71-1.25a64.2,64.2,0,0,1-6,10.43c1.14,1.83-.6,5-1.86,6.57a24.34,24.34,0,0,1-2.5-1.11,63.45,63.45,0,0,1-47.42,21.21,63.94,63.94,0,0,1-17.16-2.36L99.85,61.72l.76,15.34a63.71,63.71,0,0,1-52.5,65.78L33,145.5,40.36,159a63.84,63.84,0,0,1,5.7,14.52c.78,0,1.38,0,1.43.14s-.54.62-1.13,1.09A63.74,63.74,0,0,1,21.67,241l-12.5,9,12.5,9a63.74,63.74,0,0,1,18.69,82l-5,9.1.07,0c.08.21-.06.4-.38.56l-.94,1.72a1.34,1.34,0,0,1,.73,1.07c1.48,0-1.49,1.76-.81,1,.62-.3.9-.62.81-1-.43-.08-.82-.13-1.21-.18L33,354.5l15.08,2.66a63,63,0,0,1,16.3,5.21c.36.12.58.22.61.29a63.93,63.93,0,0,1,31.68,35,25.73,25.73,0,0,1,5.42,1.06,37.75,37.75,0,0,1-5,.23,63.21,63.21,0,0,1,3.46,24l-.76,15.34,14.84-4.16a63.59,63.59,0,0,1,75.75,36.51ZM458.33,270c.73-.43,1-.37.94.19C458.51,270.63,458.19,270.57,458.33,270ZM446.1,330.86c-1.25-.63-.73-1.06,1.62-1.26Q449.45,330.59,446.1,330.86ZM457,338.13a4,4,0,0,1-2.88-.13C454.74,337,456.25,337.32,457,338.13Zm-6.06-4.73c1.34.14,1.46.38.36.71C450.26,333.78,450.13,333.54,450.9,333.4Zm-32.54,32c.47.5.09.8-1.16.9C417.25,365.82,417.63,365.52,418.36,365.4Zm-17.64,14c1.49-.21,2.24-.07,2.24.42a11.16,11.16,0,0,1-3.22.67C399.2,380,399.53,379.67,400.72,379.41Zm-22.27,49.71c.43.39.12.67-.94.84C376.17,429.89,376.48,429.61,378.45,429.12Zm-128.8,19.5c.45.28,1.3,1.15.69,1.46.33-.44-.21-.39-1.63.16C248.47,449.6,248.78,449.06,249.65,448.62Zm-14,3.86c1-.34,3.23-2.13,3.55-2.15,1.37.68,1.09,1.6-.87,2.76C237.51,454.66,235.13,452.67,235.68,452.48Zm223.16-304c.83.37.66.64-.52.8C457.62,149,457.79,148.73,458.84,148.5Zm-4.1,3.92c2.34.55-4.29,2-5.32.44A11.13,11.13,0,0,1,454.74,152.42Zm-19.65-14.35.16-.1c-.05.09-.11.12-.16.1s0,0-.1,0A.21.21,0,0,0,435.09,138.07Zm-.12.07c-.05.36-.38.47-1,.38C434.34,138.4,434.66,138.27,435,138.14Zm-4.66,2.45c.39,1-.34,1.79-2.18,2.51C428.07,142.72,427.34,139.8,430.31,140.59Zm-19.64-22.11c.5.44.31.85-.56,1.22C409.3,119.11,409.49,118.7,410.67,118.48Zm-3.86,7.43c2-2.24,4.35.35,3.44.29C409.72,126.17,405.13,127.9,406.81,125.91ZM346.26,66c-.71.26-1.42.51-2.13.78l-.11,0,.11,0C344.9,66.39,340.25,64.67,346.26,66Zm-37.1-35.3c1.09.84.38,1.05-2.14.61C306.76,30.68,307.47,30.48,309.16,30.71ZM272.58,40.6c.78.25.74.66-.11,1.22A1.39,1.39,0,0,1,272.58,40.6Zm-58-3.27c-.41.69-.8.68-1.13,0C213.71,36.71,214.09,36.72,214.54,37.33ZM197.42,28c.22-.73.88-.89,2-.45C198.94,27.88,196.88,29.87,197.42,28Zm-3.79,12.71c2.12-1.58-1.39,3.51-1.65,3.83C189.48,43.09,191.56,42.28,193.63,40.73Zm-2.88-3.5c.83.22.83.51,0,.84C190.07,37.79,190.07,37.51,190.75,37.23ZM158.63,74.44c-.94-.27-1-.61-.23-1C159.48,73.74,159.57,74.08,158.63,74.44Zm-.87-3.65c1.55.47,1.61.95.19,1.43C155.52,72.19,157.71,70.77,157.76,70.79ZM118.16,74c.17-.44.34-.87.53-1.31-.07-.14,1.65,2.56-.31,2.38C117.53,74.82,117.44,74.45,118.16,74ZM98.41,115.89c.71.57.34,1.11-1.08,1.63C96.72,116.6,97.09,116.05,98.41,115.89ZM55.07,150.5c-.28.57-.54.58-.8,0C54.53,149.93,54.79,149.93,55.07,150.5Zm-1.67,1.38c.83-.17,1.3,0,1.39.48C53.69,152.52,53.23,152.35,53.4,151.88Zm-4.13-.32a1.84,1.84,0,0,1-2.18.27C46.38,150.85,48.94,151.37,49.27,151.56Zm-9.33.7c1.09.66.85.91-.75.77C38.44,152.47,38.69,152.22,39.94,152.26Zm-.38,3.94c-1-.36-1-.66.24-.88C41.17,155.77,41.1,156.07,39.56,156.2Zm14.78,52.25c-.07.68-.56.76-1.43.25C53,208.22,53.49,208.14,54.34,208.45Zm-3.14-7.89a2.63,2.63,0,0,1-4.14.74A4,4,0,0,1,51.2,200.56Zm-3.67,23.66c.78.6.4.89-1.13.88C45.88,224.65,46.26,224.36,47.53,224.22ZM27.87,237.51c-1.13-.15-1.1-.49.1-1C30,236.73,30,237.06,27.87,237.51Zm23.76,79.62s-2.36-.24-1-.43a5.65,5.65,0,0,1,3,0A5.31,5.31,0,0,1,51.63,317.13Zm-4.57-38c1.44-2.34,5.23-.89,5.23-.89C52.1,278.3,45.83,281.17,47.06,279.15Zm2.34,63.14c.51.58,0,1-1.45,1.32a10.17,10.17,0,0,1-2.59-.24A11.05,11.05,0,0,1,49.4,342.29Zm-4.63,2.82c-.91-.21-.87-.5.08-.86C46.43,344.56,46.4,344.84,44.77,345.11ZM55.59,358.2c.33.42.52.63-.09.05a.2.2,0,0,0,.09-.05c-.51-.6-1.32-1.68-.31-1.29C56.82,357.27,56.91,357.71,55.59,358.2Z"/><path class="cls-1" d="M440.58,181.27c3.13-.6,8.1-1.51,12.19-2.13A63,63,0,0,1,457.22,164c-4.74.64-11.21,1.18-13.11,1.23A74.69,74.69,0,0,0,440.58,181.27Z"/><path class="cls-1" d="M381.59,121.81a184.9,184.9,0,0,1,15.11,17.58c.17,0,.26,0,.25-.06a.7.7,0,0,1,.13.55,183.17,183.17,0,0,1,31.09,64.88c2.88-.43,5.69-1.06,5.72-1.84l.56.56a190.06,190.06,0,0,0-45.92-83.69C387.4,120.54,384.06,121.34,381.59,121.81Zm22.29,18.11c-.12.65-.52.63-1.17-.06C402.94,139.15,403.34,139.18,403.88,139.92Z"/><path class="cls-1" d="M435.93,209.8l-6.52.19q1.47,6.63,2.47,13.44a2.51,2.51,0,0,1,.19.24c0,.06-.09.11-.13.16A185.1,185.1,0,0,1,433.81,250a182.7,182.7,0,0,1-28.47,98.15c.18.66.12,1.26-.74,1.16a185.4,185.4,0,0,1-24.13,30l-.37.38-.37.36a.82.82,0,0,1,.19.09c1.22.79-.74,2.26-2,2.85a1.2,1.2,0,0,1-.24-1c-.82.79-1.63,1.6-2.47,2.39a185.67,185.67,0,0,1-19.76,16l-1.86,1.29c-.33.23-.68.44-1,.67.95-.43,1.78-.5,2.23.19.31.47-3.95,2.29-4.14,3,3.25-.24,10.88-2.44,10.72-4.47,1.69.37,1.84,1.12,1.34,1.94a191.79,191.79,0,0,0,18.56-15.56c.63-.61,1.26-1.22,1.88-1.84q2.29-2.25,4.52-4.57A191.14,191.14,0,0,0,420.64,334c-.48.1-.69-.18-.59-.87.49-.31.85-.36,1.09-.16A190.12,190.12,0,0,0,435.93,209.8ZM358.82,401.37c0-.25,1.84-2.29,2.31-2.08l1.7.9A7.21,7.21,0,0,1,358.82,401.37Zm54.89-67.3a1.54,1.54,0,0,1,2.43.11C414.85,334.92,414,334.89,413.71,334.07Zm21.22-110.16c-.57-.79.07-1.38,1.95-1.75C439.09,221.1,436.19,225.27,434.93,223.91Z"/><path class="cls-1" d="M451,203.56c.21,0,1.66.17,2.61.32A63.86,63.86,0,0,1,452.37,182a27.63,27.63,0,0,1-9.12,1.79,12.93,12.93,0,0,1-2.88-.55,76.2,76.2,0,0,0,.84,18.61c1.45.42-.39,1.76,2.24,1.87A34,34,0,0,0,451,203.56Zm-6-1.73q2.79.39-.05.72C443.81,202.14,443.83,201.9,445,201.83Z"/></svg>