<svg id="Your_Dad_s_Fireworks" data-name="Your Dad’s Fireworks" xmlns="http://www.w3.org/2000/svg" viewBox="0 0 500 500"><defs><style>.cls-1{fill:#484848;}.cls-2{fill:#fff;}.cls-3{fill:#bb1f40;}.cls-4{fill:#202d61;}</style></defs><path class="cls-1" d="M299.09,34.9A75.26,75.26,0,0,0,368.15,80a75.33,75.33,0,0,0,19.41-2.54,75.53,75.53,0,0,0,61.22,76.77A75.56,75.56,0,0,0,470.65,250a75.55,75.55,0,0,0-21.87,95.73,75.55,75.55,0,0,0-61.22,76.77,75.4,75.4,0,0,0-88.47,42.6,75.43,75.43,0,0,0-98.18,0,75.4,75.4,0,0,0-88.47-42.6,75.54,75.54,0,0,0-61.22-76.77A75.56,75.56,0,0,0,29.35,250a75.56,75.56,0,0,0,21.87-95.73A75.54,75.54,0,0,0,112.44,77.5,75.33,75.33,0,0,0,131.85,80,75.26,75.26,0,0,0,200.91,34.9,75.37,75.37,0,0,0,250,53.06,75.33,75.33,0,0,0,299.09,34.9Zm4.49-19.7L292.1,25.34A63.55,63.55,0,0,1,250,41.26a63.55,63.55,0,0,1-42.1-15.92L196.42,15.2l-6,14.17a63.49,63.49,0,0,1-58.59,38.87,63.94,63.94,0,0,1-17.16-2.36L99.85,61.72l.76,15.34a63.71,63.71,0,0,1-52.5,65.78L33,145.5,40.36,159a63.73,63.73,0,0,1-18.69,82l-12.5,9,12.5,9a63.74,63.74,0,0,1,18.69,82L33,354.5l15.08,2.66a63.72,63.72,0,0,1,52.51,65.78l-.76,15.34,14.84-4.16a63.59,63.59,0,0,1,75.75,36.51l6,14.17,11.48-10.14a63.63,63.63,0,0,1,84.2,0l11.48,10.14,6-14.16a63.58,63.58,0,0,1,75.75-36.52l14.84,4.16-.76-15.34a63.71,63.71,0,0,1,52.5-65.78L467,354.5,459.64,341a63.72,63.72,0,0,1,18.69-82l12.5-9-12.5-9a63.73,63.73,0,0,1-18.69-82L467,145.5l-15.08-2.66a63.7,63.7,0,0,1-52.51-65.78l.76-15.34-14.84,4.16a63.94,63.94,0,0,1-17.16,2.36,63.49,63.49,0,0,1-58.59-38.87l-6-14.17Z"/><path class="cls-1" d="M282,352.54c-5.29-5.33-10.81-10.44-16.56-15.27s-11.68-9.47-17.81-13.82c-1.54-1.07-3.05-2.19-4.62-3.23l-4.69-3.13-4.77-3c-1.59-1-3.21-2-4.82-2.95q-9.7-5.75-19.81-10.87c-6.74-3.38-13.62-6.51-20.55-9.56,7.18,2.4,14.24,5.16,21.2,8.17s13.74,6.46,20.38,10.15,13.1,7.72,19.38,12q4.75,3.29,9.36,6.82a97.8,97.8,0,0,1,3.05-21.57c3.15-11.4,7.13-16.36,7.13-16.36s-6.16-1.15-9-2.56-15.1-6.22-20.76-8.11S192.1,263,182.54,266c-.67,2,1.46,3.88,1.47,8.88s-6.25,19.34-6.25,19.34l3.89,2.75c-9.9,18.8-21.17,24.3-25.2,32.49,8.24,1.11,80.34,15.37,123.71,57-29.43-23.18-62.38-40.69-125.81-49.45-2.73,10.07-6.55,25.27-10,41.23a165.9,165.9,0,0,0,175.82,22.45,307.92,307.92,0,0,0-23-31.44C292.31,363.45,287.27,357.85,282,352.54Z"/><path class="cls-1" d="M291.17,293.13c-2.63,1.76-6.05,7.6-6.05,7.6C280.89,307.2,268.86,323,260,328.91c2.5,1.95,5,3.93,7.41,6,5.79,4.94,11.37,10.13,16.66,15.6a226.44,226.44,0,0,1,15,17.18,229.1,229.1,0,0,1,21.55,32.76q4.51-2.12,8.86-4.49c-1.62-7.5-3.1-13.77-3.63-16.41C321.74,358.49,296.61,301.17,291.17,293.13Z"/><path class="cls-1" d="M363.18,357.2l-10.66,14.6,8.29-16.07c5.38-8.63,15.61-31.7,16.06-32.65s2.7-2.46,3.13-4.74-1.61-7.55-.55-9.67,4.12-15.93,2.38-17.46-17.67-15.27-17.67-15.27a23.33,23.33,0,0,0-.87-6.07c-2.6-1.68-14.2-4-18.73-1.52a22.66,22.66,0,0,0,2.48,1.19,34,34,0,0,0,4.25,1.39,35.57,35.57,0,0,0,9,1.17,35.92,35.92,0,0,1-9.21.06,34.72,34.72,0,0,1-4.6-.84,24.08,24.08,0,0,1-2.42-.75,44,44,0,0,1-3,8.71s-19-14.07-27.39-17.68a65.88,65.88,0,0,0-14.67-4,16.46,16.46,0,0,0,2.85-4.36c-3.45-1.31-3.62-4.62-4.2-6.69,1.56.06,5.65-.4,7.12-1.36a8,8,0,0,0,3.19-5c.31-2,.18-1.64-1.89-4.35s-6.1-10.21-11.11-20.13a21.51,21.51,0,0,0,5.74-12.67c-4.35-3.05-6.85-12.93-7.47-17.69,16.2-3.07,25.4-13.69,24.25-17.26s-7.13-6.29-32.14-7.3c-18.28,0-63.77,8.68-88.38,23.14,21.48-15,67.3-25,85.36-27.39h0c-8.91-16-17.07-59.48-17.07-59.48s-3.35-2.58-13.86-2.62c1.58,12.24,6.53,48.91,10.74,61.05-8-14.34-15.14-52-16.7-60.82-1.35.1-2.78.23-4.31.41q.58,4.68,1.34,9.33c.85,5.29,1.85,10.57,3,15.82s2.35,10.48,3.71,15.68a140.61,140.61,0,0,0,4.81,15.39,140.48,140.48,0,0,1-5.71-15.12q-2.5-7.69-4.63-15.51T239.65,105c-.69-3.12-1.33-6.26-1.9-9.42a198.6,198.6,0,0,0-29,6.82c-45.4,13.85-47.66,28.88-47.66,28.88s5.23,14.09,9.41,27.77,7.9,31.64,7.9,31.64a228.3,228.3,0,0,0-15.76,17.52c-6.74,8.54-3,14.26-.54,15.24s9,1.88,19.46.7c-1,3.26-4.88,7.07-8.42,8.42,4.16.91,6.36-.38,8-2.09-.88,3.85-5.2,7-7.27,7.46a12.33,12.33,0,0,0,7.85,2,11.51,11.51,0,0,0,3.21,10.41s-.69-4.05,2.32-6.59c-1.77,6.9,2.56,18.7,2.56,18.7A266.58,266.58,0,0,1,240,277.47c27.21,11.12,30.16,9,31.58,10.11s-10.8,29.74-12.72,40.43l.35.27c4.38-4.71,17.9-19.53,23.18-28.14l-6.1-5.21,2.32-6.52s8.69,1.42,11.26.6,6.63-5.34,6.58-8.7-3.8-8.06-4.13-8.84,1.12-3.22,4.22-4.91c2.2.58,2.07-2.09.84-4.73,5.56.94,8.15,2.43,13.7,5.54,6.52,3.65,20.38,17.17,20.38,17.17s-3.32.89-3,3.8,7.8,5.81,11.78,6.89c.67,2.8,2.28,9.34,2.28,9.34s-4.06-.2-5.87.67-4.12,2.77-6.15,6.66c-3.59-.1-3.93,1.26-4.7,5.28s-2.26,5.09-2.25,5.92.87,2.28,3.68,2.29,3.2-2.19,3.56-2.2a44.69,44.69,0,0,1,4.21,2.49c.78.45,2.08,3.25,2.56,4.23s-.19,7.34-.55,11.1-7.25,11.89-7.34,13,1.61,6.33,1.61,6.33l-2.51.46c7.91,6.29,19.54,11.05,30.47,14.29q5.92-5.19,11.36-10.92A48.41,48.41,0,0,0,363.18,357.2ZM362,287.91a59.44,59.44,0,0,0,8.35,10.59s-2.93,2.65-2.21,5.24c-3.54-3-5.45-8.4-5.41-9.13a2.07,2.07,0,0,0-2.09-2.26C361.55,291.77,362,289.26,362,287.91Z"/><path class="cls-1" d="M326.62,375.12c1.11,3.72,3.07,10.8,4.8,19.71q4.4-2.47,8.62-5.21c-1.07-1.12-2.12-2.26-3.12-3.44a50.07,50.07,0,0,1-8.33-12.85,50.27,50.27,0,0,0,4.35,6.23c1.59,2,3.27,3.85,5,5.67,1.13,1.18,2.31,2.32,3.49,3.45a168.86,168.86,0,0,0,13.84-10.2c-18.14-7.43-28-17.37-28-17.37A58.23,58.23,0,0,1,326.62,375.12Z"/><path class="cls-2" d="M338,385.23c-1.76-1.82-3.44-3.7-5-5.67a50.27,50.27,0,0,1-4.35-6.23,50.07,50.07,0,0,0,8.33,12.85c1,1.18,2.05,2.32,3.12,3.44l1.42-.94C340.28,387.55,339.1,386.41,338,385.23Z"/><path class="cls-2" d="M334.84,431c0,.56,0,1.12,0,1.67C334.83,432.13,334.84,431.57,334.84,431Z"/><path class="cls-2" d="M284.06,350.48c-5.29-5.47-10.87-10.66-16.66-15.6-2.43-2-4.91-4-7.41-6-.47.31-.94.6-1.39.86h-.8l.81-.87c0-.28,0-.64,0-1.06q-4.6-3.53-9.36-6.82c-6.28-4.3-12.71-8.37-19.38-12s-13.45-7.06-20.38-10.15-14-5.77-21.2-8.17c6.93,3.05,13.81,6.18,20.55,9.56s13.34,7,19.81,10.87c1.61,1,3.23,1.94,4.82,2.95l4.77,3,4.69,3.13c1.57,1,3.08,2.16,4.62,3.23,6.13,4.35,12.09,8.95,17.81,13.82s11.27,9.94,16.56,15.27,10.36,10.91,15.22,16.65a307.92,307.92,0,0,1,23,31.44l.45-.21a229.1,229.1,0,0,0-21.55-32.76A226.44,226.44,0,0,0,284.06,350.48Z"/><path class="cls-2" d="M259.19,328.28l-.35-.27c0,.27-.1.55-.13.8C258.85,328.65,259,328.48,259.19,328.28Z"/><path class="cls-2" d="M258.6,329.77c.45-.26.92-.55,1.39-.86l-.8-.63c-.17.2-.34.37-.48.53C258.66,329.15,258.62,329.47,258.6,329.77Z"/><path class="cls-2" d="M258.61,328.91l-.81.87h.8S258.6,329.46,258.61,328.91Z"/><path class="cls-1" d="M250,71C151.3,71,71,151.3,71,250A179,179,0,0,0,332.12,409l1.45-.77a178.29,178.29,0,0,0,16.14-9.66l1.79-1.23a180.38,180.38,0,0,0,18-14.21q2.4-2.16,4.72-4.39c1.35-1.31,2.67-2.63,4-4A178.35,178.35,0,0,0,429,250C429,151.3,348.7,71,250,71ZM370.62,364.2q-5.43,5.73-11.36,10.92c-1.31,1.14-2.62,2.26-4,3.36a168.86,168.86,0,0,1-13.84,10.2l-1.42.94q-4.21,2.73-8.62,5.21c-.65.37-1.3.74-2,1.1q-4.35,2.37-8.86,4.49l-.45.21A166.24,166.24,0,0,1,83.81,250c0-91.64,74.55-166.19,166.19-166.19S416.19,158.36,416.19,250A165.58,165.58,0,0,1,370.62,364.2Z"/><path class="cls-3" d="M250,59.78C145.11,59.78,59.78,145.11,59.78,250A190.1,190.1,0,0,0,334,420.63l.65-.33a191.57,191.57,0,0,0,24.39-14.53l1.86-1.33a190.91,190.91,0,0,0,20.38-16.92c.63-.61,1.26-1.22,1.88-1.84q2.29-2.25,4.52-4.57A189.56,189.56,0,0,0,440.22,250C440.22,145.11,354.89,59.78,250,59.78ZM380.47,379.34l-.37.38q-2.4,2.4-4.88,4.71a185.67,185.67,0,0,1-19.76,16l-1.86,1.29a185.8,185.8,0,0,1-19.45,11.64L333,414a182.43,182.43,0,0,1-68.15,19.24c-4.9.39-9.85.6-14.85.6A184,184,0,0,1,66.19,250C66.19,148.65,148.65,66.19,250,66.19S433.81,148.65,433.81,250A183.23,183.23,0,0,1,380.47,379.34Z"/><path class="cls-4" d="M144.74,314.38l-9.69,5.67a3,3,0,0,0-.84.7l-13.75,14.89L117.73,331c3.8-3.7,8.16-7.94,10.9-10.1l0,0c-3.56,1.32-9.2,3-14.16,4.52l-2.62-4.48,20.14-4.8a5.38,5.38,0,0,0,1.09-.53l9.22-5.39Z"/><path class="cls-4" d="M111.74,299.51l13.64-5.71c5.61-2.35,9.25-1.08,11.32,3.87,2,4.75.17,8-5.28,10.31l-13.76,5.76c-5.6,2.35-9.33.6-11.15-3.76S106.12,301.87,111.74,299.51Zm3.59,9.81,14.7-6.15c2.43-1,3.2-2.38,2.52-4s-2.13-2.09-4.7-1l-14.66,6.14c-2.32,1-3.31,2.22-2.54,4.05C111.33,310,112.86,310.36,115.33,309.32Z"/><path class="cls-4" d="M100.58,291.54l23.33-6.05c2.24-.58,3.33-1.64,2.85-3.47s-2.07-2.11-4.15-1.57l-23.34,6-1.22-4.73,23.23-6c4.84-1.26,8.45.14,9.78,5.26,1.26,4.87-.77,7.89-6,9.24l-23.25,6Z"/><path class="cls-4" d="M113.58,267.6,127.66,266l.56,4.86-31.49,3.59L96,267.72c-.54-4.79,1.05-7.84,6.72-8.49l1.2-.14c4.84-.55,6.3,1.3,6.93,2.46.66-1.94,1.86-3.14,6.13-3.63a87.92,87.92,0,0,0,9.64-1.39l.54,4.69c-1.86.64-7,1.14-9.32,1.4-3.84.44-4.67,1-4.34,3.85Zm-4,.46-.13-1.12c-.3-2.57-1.37-3.4-4.8-3l-1.08.12c-2.43.28-3.85,1-3.54,3.71l.16,1.37Z"/><path class="cls-4" d="M94.84,246.13l.48-6.76c.48-6.7,4.07-8.09,9.94-7.67l12.12.86c4.83.34,10.08,1.55,9.55,9.06l-.48,6.76Zm27.81-2.92.11-1.57c.23-3.2-1.8-3.84-5.07-4.07l-13.17-.93c-2.91-.21-4.8.17-5,3.38l-.11,1.54Z"/><path class="cls-4" d="M120.53,225l8.06,2.86-1,4.86-29.93-11.6,1.44-6.75,32.1,1.42-1.07,5-8.55-.54Zm-3.5-5.14c-5.42-.41-10.56-.8-14.14-1.19l0,.18c2.53.67,9,3,13.41,4.61Z"/><path class="cls-4" d="M101.82,203.73l2.32-6.37c2.3-6.31,6.13-6.66,11.66-4.65l11.41,4.16c4.55,1.66,9.28,4.27,6.7,11.35l-2.32,6.36Zm27.53,4.83.54-1.47c1.1-3-.67-4.19-3.76-5.31l-12.4-4.52c-2.74-1-4.66-1.15-5.77,1.87l-.52,1.45Z"/><path class="cls-4" d="M118.29,189a54.29,54.29,0,0,0-9.51-6.3l2-4a33.72,33.72,0,0,1,9.13,7.09Z"/><path class="cls-4" d="M135.46,183l1.67,1c2,1.24,3.49,1.32,4.47-.26s-.29-3-2-4.07c-2.9-1.78-4.19-1.7-8.25-.21s-6.5,2.15-10.49-.3c-3.56-2.19-6.49-5.47-3.5-10.34s7.09-3.57,10-1.77l1.44.88L126.25,172l-1.33-.81c-1.88-1.16-3.21-1.54-4.06-.16s.12,2.44,1.91,3.53,3.07,1.39,6.26.08c5.47-2.21,8-2.38,12.48.39,3.83,2.35,6.64,5.92,3.55,11s-7,4.26-10.56,2.08l-1.6-1Z"/><path class="cls-4" d="M310.39,107.08l11.19,5.2-1.91,4.11-6.76-3.14-3.51,7.56,6.44,3-1.91,4.11-6.44-3-6,13L297,135.81Z"/><path class="cls-4" d="M330.22,117.29l-16,27.36L310,142.19l16-27.36Z"/><path class="cls-4" d="M329.58,137.82l-8.36,11.44-4-2.89L336,120.79l5.46,4c3.89,2.84,5.05,6.08,1.68,10.69l-.71,1c-2.87,3.93-5.22,3.75-6.5,3.43,1,1.8,1,3.49-1.49,7a86.09,86.09,0,0,0-5.52,8l-3.81-2.79c.79-1.79,3.94-5.94,5.29-7.8,2.29-3.12,2.41-4.13.12-5.8Zm2.38-3.26.91.66c2.09,1.53,3.43,1.3,5.46-1.48l.64-.88c1.45-2,1.92-3.48-.32-5.11l-1.11-.82Z"/><path class="cls-4" d="M349.4,154.32l-5.06-4.79-6.87,7.24,5.83,5.52-3.54,2.84-8.92-8.47,21.81-23,8.88,8.42-3.13,3.29-5.33-5.06-5.63,5.94,5.05,4.79Z"/><path class="cls-4" d="M343.24,168.84l22.57-22.66,3.15,4.13c-5,4.73-12.76,11.88-17.37,15.7l.05.07c5.78-3.49,14.28-8.31,20.35-11.8l2.88,3.78c-5.14,5.1-11.45,11.57-16.62,16.32l.06.08c5.15-3.45,13.46-8.62,19.61-12.39l3,3.92-28,15.49-3-4c5.11-5,11.08-11.13,15.85-15.62l0-.08c-5.75,3.46-13.41,7.57-19.42,11Z"/><path class="cls-4" d="M383.55,188.93l-13.11,6.86c-5.38,2.81-9.11,1.86-11.6-2.9-2.39-4.56-.86-8,4.38-10.72l13.22-6.92c5.37-2.81,9.24-1.39,11.43,2.8S389,186.1,383.55,188.93Zm-4.41-9.47L365,186.85c-2.34,1.22-3,2.63-2.17,4.19s2.29,1.9,4.76.61l14.09-7.37c2.23-1.17,3.1-2.5,2.18-4.25C383.07,178.47,381.51,178.21,379.14,179.46Z"/><path class="cls-4" d="M378.88,201.91l-13.34,4.77-1.65-4.6,29.84-10.68,2.28,6.38c1.62,4.54.76,7.87-4.61,9.79l-1.13.41c-4.59,1.63-6.43.17-7.32-.82-.19,2-1.09,3.48-5.14,4.93a88.68,88.68,0,0,0-9.06,3.55l-1.59-4.44c1.66-1,6.59-2.71,8.75-3.49,3.64-1.3,4.31-2.07,3.35-4.74Zm3.8-1.36.38,1c.87,2.44,2.11,3,5.35,1.84l1-.36c2.31-.83,3.54-1.81,2.61-4.42l-.46-1.3Z"/><path class="cls-4" d="M400.4,211.69l1,4.71-14,2.91v.05c3.32.55,10.55,1.82,15.17,2.63l1.11,5.33-13.23-3.14-17.72,9.94-1.08-5.21,13.12-7-4.59-1.13-9.79,2-1-4.7Z"/><path class="cls-4" d="M382.2,238.35l-2,.13c-2.35.16-3.61,1-3.49,2.81s2,2.27,4,2.13c3.39-.23,4.4-1,6.85-4.6s4.05-5.52,8.73-5.83c4.17-.28,8.46.7,8.84,6.41s-3.72,7-7.15,7.24l-1.69.12-.32-4.84,1.56-.1c2.2-.15,3.51-.61,3.4-2.23s-1.52-1.91-3.61-1.77-3.3.65-5.15,3.56c-3.18,5-5.11,6.56-10.4,6.91-4.49.3-8.84-1-9.24-6.89s3.24-7.52,7.4-7.8l1.88-.12Z"/><polygon class="cls-4" points="155.08 240.75 158.85 252.36 171.06 252.36 161.18 259.54 164.96 271.15 155.08 263.97 145.2 271.15 148.98 259.54 139.1 252.36 151.31 252.36 155.08 240.75"/><polygon class="cls-4" points="334.99 206.49 338.76 218.1 350.97 218.1 341.09 225.28 344.86 236.89 334.99 229.71 325.11 236.89 328.88 225.28 319.01 218.1 331.21 218.1 334.99 206.49"/></svg>